<svg xmlns="http://www.w3.org/2000/svg" viewBox="0 0 148.9 146"><title>Asset 2</title><path d="M87.24,82.73a10.73,10.73,0,0,0,.32-6.33l-.92-3.64c1,.09,2.08.14,3.12.14.78,0,1.55,0,2.31-.06l2.67-.14V89a1,1,0,1,0,2,0V53.93A45.87,45.87,0,1,0,5,53.93v59.91a1,1,0,1,0,2,0V72.7l2.67.14c.77,0,1.54.06,2.32.06,1,0,2.08-.05,3.12-.14l-.92,3.64a10.73,10.73,0,0,0,.32,6.33l1.85,5.1a10.71,10.71,0,0,0,4.81,5.67,22.94,22.94,0,0,0,4.65,8.27L40.67,118.6A13,13,0,0,0,50.38,123h1a13,13,0,0,0,9.71-4.39l14.86-16.84a22.94,22.94,0,0,0,4.65-8.27,10.71,10.71,0,0,0,4.8-5.67Zm60.92,42-3.88-1a6.63,6.63,0,0,0-.61-4.76,12.55,12.55,0,0,0-5-5.12c-4.84-2.8-10.17-2.33-12.12,1.06a5.23,5.23,0,0,0-.68,2.36L119.47,114,117.6,86.22a1,1,0,0,0-.21-.55L114,81.36a1,1,0,0,0-1.78.56l-1.61,27.67L85.88,97.15a1,1,0,0,0-1.37,1.26l2,5.1a1,1,0,0,0,.37.46L110,119.49l-.42,7.13a5.25,5.25,0,0,0-2.38-.59c-3.91,0-7,4.39-7,10s3.07,10,7,10,7-4.37,7-9.94l1.73-16.76.17-.17.22-.06,15.4,6.89a12.82,12.82,0,0,0,6.26,1.79,6.66,6.66,0,0,0,5.35-2.24l4.29,1.15a1,1,0,0,0,1.22-.71A1,1,0,0,0,148.16,124.74Z" fill="#ffd4cc"/><path d="M82.24,74.73a10.73,10.73,0,0,0,.32-6.33l-.92-3.64c1,.09,2.08.14,3.12.14.78,0,1.55,0,2.31-.06l2.67-.14V81a1,1,0,1,0,2,0V45.93A45.87,45.87,0,1,0,0,45.93v59.91a1,1,0,1,0,2,0V64.7l2.67.14c.77,0,1.54.06,2.32.06,1,0,2.08-.05,3.12-.14L9.17,68.4a10.73,10.73,0,0,0,.32,6.33l1.85,5.1a10.71,10.71,0,0,0,4.81,5.67,23,23,0,0,0,4.65,8.27L35.67,110.6A13,13,0,0,0,45.38,115h1a13,13,0,0,0,9.71-4.39L70.93,93.76a22.94,22.94,0,0,0,4.65-8.27,10.71,10.71,0,0,0,4.8-5.67Zm-69,4.41L11.37,74a8.73,8.73,0,0,1-.26-5.16l1.11-4.38q1.42-.21,2.84-.53V78.55a23,23,0,0,0,.35,3.93A8.74,8.74,0,0,1,13.22,79.14Zm61.46-.59a21,21,0,0,1-5.25,13.88L54.57,109.28A11,11,0,0,1,46.35,113h-1a11,11,0,0,1-8.22-3.71L22.3,92.44a21,21,0,0,1-5.25-13.88V63.48c11.25-3.14,21.83-11.3,28.81-22.6,7,11.3,17.56,19.46,28.81,22.6ZM46.73,38.44l0,0a1,1,0,0,0-.13-.15,1,1,0,0,0-.15-.13l0,0-.12,0L46.05,38h-.38a1,1,0,0,0-.19.07l-.12,0,0,0a1.58,1.58,0,0,0-.28.28l0,0C38.49,49.73,24.63,62.91,7,62.91c-.74,0-1.48,0-2.21-.06L2,62.7V45.93a43.87,43.87,0,1,1,87.74,0V62.7L87,62.85c-.73,0-1.47.06-2.21.06C67.1,62.91,53.24,49.73,46.73,38.44Zm31.78,40.7a8.74,8.74,0,0,1-2.18,3.34,23,23,0,0,0,.35-3.93V64q1.42.32,2.84.53l1.11,4.38A8.74,8.74,0,0,1,80.36,74ZM46.81,92.07l-.94.58-.94-.58h0a5.69,5.69,0,0,0-6.73.34,3.76,3.76,0,0,1-3.06.77L33.93,93a1,1,0,0,0-.8,1.72,18.47,18.47,0,0,0,12.73,4.7,18.48,18.48,0,0,0,12.8-4.77A1,1,0,0,0,57.8,93l-1.24.15a3.71,3.71,0,0,1-3-.78A5.68,5.68,0,0,0,46.81,92.07Zm8,3.06a18.35,18.35,0,0,1-17.87,0A5.72,5.72,0,0,0,39.43,94a3.71,3.71,0,0,1,4.44-.19l1.47.91h0l.17.07.08,0h.51l.08,0,.17-.07h0l1.47-.91h0l0,0a3.7,3.7,0,0,1,4.41.2A5.74,5.74,0,0,0,54.8,95.13Zm-3.34,4.69a8.27,8.27,0,0,1-11.18,0A1,1,0,0,0,39,101.31a10.26,10.26,0,0,0,13.83,0,1,1,0,0,0-1.33-1.49Zm91.7,16.92-3.88-1a6.63,6.63,0,0,0-.61-4.76,12.55,12.55,0,0,0-5-5.12c-4.84-2.8-10.17-2.33-12.12,1.06a5.23,5.23,0,0,0-.68,2.36L114.47,106,112.6,78.22a1,1,0,0,0-.21-.55L109,73.36a1,1,0,0,0-1.78.56l-1.61,27.67L80.88,89.15a1,1,0,0,0-1.37,1.26l2,5.1a1,1,0,0,0,.37.46L105,111.49l-.42,7.13a5.25,5.25,0,0,0-2.38-.59c-3.91,0-7,4.39-7,10s3.07,10,7,10,7-4.37,7-9.94l1.73-16.76.17-.17.22-.06,15.4,6.89a12.82,12.82,0,0,0,6.26,1.79,6.66,6.66,0,0,0,5.35-2.24l4.29,1.15a1,1,0,0,0,.26,0,1,1,0,0,0,.26-2Zm-34.1-40.08,1.57,2L112.4,105l-4.85-2.44ZM102.24,136c-2.7,0-5-3.66-5-8s2.28-8,5-8,5,3.66,5,8S104.94,136,102.24,136Zm5.6-14a9,9,0,0,0-1.31-1.91l.46-7.87,1.91-.51Zm4-12.91a1,1,0,0,0-.67-.05l-4.42,1.18L83.28,94.48l-.95-2.37,38.86,19.54a8.63,8.63,0,0,0,.46,1.16,10,10,0,0,0,.53.93Zm25.24,6.77c-1.35,2.34-5.66,2.49-9.4.33a10.54,10.54,0,0,1-4.22-4.27,4.25,4.25,0,0,1-.19-4,4.48,4.48,0,0,1,4.08-1.86,10.89,10.89,0,0,1,5.32,1.53,10.54,10.54,0,0,1,4.22,4.28A4.25,4.25,0,0,1,137.06,115.87Z" fill="#0a282d"/></svg>