<svg xmlns="http://www.w3.org/2000/svg" viewBox="0 0 115.9 151"><title>Asset 6</title><path d="M114.9,130.83a1,1,0,0,0-1,1c0,4.75-6.52,4.88-6.59,4.88-1.51,0-9-.49-9-10.21,0-4.82,1.26-7.48,2.73-10.56,2.08-4.39,4.45-9.36,4.45-21.54,0-2.54-1.46-11.59-5.86-17.72h0A45.88,45.88,0,1,0,20.72,78c-3.24,5.45-5.16,11.19-5.16,16.39,0,12.17,2.36,17.15,4.45,21.54,1.46,3.08,2.73,5.75,2.73,10.56,0,9.71-7.52,10.21-9,10.21-.07,0-6.59-.13-6.59-4.88a1,1,0,1,0-2,0c0,1.73-1.42,19.17,15,19.17,7.49,0,15.44-6.33,15.44-18.06,0-9.86-.47-13.89-13.29-37.89a16.64,16.64,0,0,1,.3-16.41l.06-.09,0-.08.12-.2a10.63,10.63,0,0,0,.57,2.37l1.85,5.09A10.71,10.71,0,0,0,30,91.41a22.94,22.94,0,0,0,4.65,8.27l14.87,16.84a13,13,0,0,0,9.72,4.38h.49a1,1,0,0,0,.24,0,1,1,0,0,0,.24,0A13,13,0,0,0,70,116.52l10.85-12.29a55.51,55.51,0,0,0,7.48,12.35,54.46,54.46,0,0,0-2.81,16.38c0,11.73,8,18.06,15.44,18.06,15.79,0,15-17.7,15-19.17A1,1,0,0,0,114.9,130.83Z" fill="#ffd4cc"/><path d="M66.71,91l-1.25.15a3.74,3.74,0,0,1-3-.77A5.7,5.7,0,0,0,55.7,90l-.94.58L53.81,90h0a5.71,5.71,0,0,0-6.75.34,3.77,3.77,0,0,1-3.07.77L42.8,91a1,1,0,0,0-.8,1.72,18.54,18.54,0,0,0,12.76,4.7,18.55,18.55,0,0,0,12.78-4.72,1,1,0,0,0-.82-1.7Zm-12,4.42a17.66,17.66,0,0,1-9-2.32,5.73,5.73,0,0,0,2.51-1.17,3.73,3.73,0,0,1,4.45-.19l1.47.91a1,1,0,0,0,.28.12H55a1,1,0,0,0,.27-.11h0l1.5-.93a3.72,3.72,0,0,1,4.42.21,5.77,5.77,0,0,0,2.51,1.18A17.66,17.66,0,0,1,54.76,95.37Zm5.6,2.37a8.31,8.31,0,0,1-11.21,0,1,1,0,1,0-1.33,1.49,10.31,10.31,0,0,0,13.86,0,1,1,0,1,0-1.33-1.49ZM110,122.83a1,1,0,0,0-1,1c0,4.75-6.54,4.89-6.6,4.89-1.51,0-9-.49-9-10.21,0-4.82,1.27-7.48,2.73-10.56,2.09-4.39,4.46-9.36,4.46-21.54a27.06,27.06,0,0,0-1.3-8,1,1,0,0,0-1.91.59,25.07,25.07,0,0,1,1.21,7.41c0,11.72-2.26,16.48-4.26,20.68-1.51,3.16-2.93,6.15-2.93,11.42,0,9,5.95,12.2,11,12.2,3.46,0,8.6-1.83,8.6-6.88A1,1,0,0,0,110,122.83ZM82.38,64.43a1,1,0,0,0-1.7-1.05c-.12.19-.84,1.37-1.76,3.27a21.64,21.64,0,0,1-5.29-13.58c0-9,3.35-19.36,3.38-19.46a1,1,0,0,0-1.88-.68c-.06.14-6,14.37-24.54,14.37-12.35,0-24.52,8.29-32.17,18.54a1,1,0,0,0-.45.61h0q-.6.83-1.15,1.66a44,44,0,1,1,71.9,5.71,1,1,0,0,0,1.54,1.27A46,46,0,1,0,15.62,70c-3.25,5.45-5.17,11.19-5.17,16.39,0,12.17,2.37,17.15,4.46,21.54,1.47,3.08,2.73,5.75,2.73,10.56,0,9.71-7.53,10.21-9,10.21-.07,0-6.6-.13-6.6-4.89a1,1,0,0,0-2,0c0,5,5.14,6.88,8.6,6.88,5.09,0,11-3.2,11-12.2,0-5.27-1.42-8.26-2.93-11.42-2-4.2-4.26-9-4.26-20.68,0-5,1.9-10.59,5.1-15.86l0-.08.12-.2a10.61,10.61,0,0,0,.57,2.37l1.86,5.1A10.71,10.71,0,0,0,25,83.41a22.92,22.92,0,0,0,4.66,8.27l14.9,16.84a13,13,0,0,0,9.74,4.38h.49a1,1,0,0,0,.24,0,1,1,0,0,0,.24,0A13,13,0,0,0,65,108.52L75.85,96.22a27.67,27.67,0,0,0,2.51,5.21,1,1,0,0,0,1.7-1.05C70.2,84.46,82.26,64.63,82.38,64.43ZM22,77.06,20.17,72a8.38,8.38,0,0,1-.28-4.89,49.62,49.62,0,0,1,4-4.73V76.48a22.92,22.92,0,0,0,.35,3.93A8.73,8.73,0,0,1,22,77.06ZM75.16,94,63.48,107.2a11,11,0,0,1-8.24,3.71,1,1,0,0,0-.24,0,1,1,0,0,0-.24,0h-.49A11,11,0,0,1,46,107.2L31.13,90.36a20.93,20.93,0,0,1-5.26-13.88V60.91a1,1,0,0,0-.12-.45C32.7,53.92,41.6,49.29,50.6,49.29c12,0,19.07-5.6,22.84-10.09a64.6,64.6,0,0,0-1.8,13.87A23.52,23.52,0,0,0,78,68.64C75.51,74.44,72.53,84.21,75.16,94Zm32.48,41.27a1,1,0,0,0-1.38.3A13,13,0,0,1,96,141c-6.53,0-13.48-5.63-13.48-16.06s4.35-20.13,4.4-20.23a1,1,0,0,0-1.82-.82,57.11,57.11,0,0,0-4.57,21c0,11.73,8,18.06,15.47,18.06a14.84,14.84,0,0,0,11.94-6.35A1,1,0,0,0,107.64,135.27Zm-83-31.87a1,1,0,0,0-.5,1.32c0,.1,4.4,9.84,4.4,20.23S21.57,141,15,141a13.05,13.05,0,0,1-10.26-5.44,1,1,0,0,0-1.68,1.08A14.84,14.84,0,0,0,15,143c7.5,0,15.47-6.33,15.47-18.06a57.11,57.11,0,0,0-4.57-21A1,1,0,0,0,24.61,103.4Z" fill="#0a282d"/></svg>