<svg xmlns="http://www.w3.org/2000/svg" viewBox="0 0 99.49 136.92"><title>Asset 10</title><path d="M80.61,69.37l17.15,18.1a1,1,0,0,0,1.46-1.37L76.89,62.54l1.46-1.46L97.79,79.34a1,1,0,1,0,1.38-1.46L79.78,59.66a5,5,0,0,0,0-7l-1-1c5-4.8,8.05-12.87,8.05-17.75,0-17.29-13.61-25.38-14.19-25.71a1,1,0,0,0-1.18.12,1,1,0,0,0-.25,1.15c0,.07,3.31,7.46,3.31,13.05,0,1.15-.46,4.92-6.36,4.92a6,6,0,0,1-4.57-1.82c-2.88-3-2.59-8.85-2.58-8.91A1,1,0,0,0,59.18,16c-.25.31-7.48,10.42-6.94,19.62-4.66-1-14.08-2.1-18.5-2.5-6.25-.57-11.64-1.06-15.51-3C6.67,24.4,7,15,7,14.56a1,1,0,0,0-2-.11c0,.43-.4,10,10.29,16.34.42,2.23,2.31,12.54,2.31,17.91,0,7.86-3.44,14.79-6,19.86-1.5,3-2.59,5.22-2.59,6.84,0,4.3,6.8,6.5,10.09,6.92,0,1.52-.11,3-.19,4.41-.21,3.69-.28,5.67.37,6.63s3,1.11,5.18.78c-.86,2.13-1.64,4.73-.94,5.94s1.92,1,3.06,1c1.48-.07,2.5-.05,3.25.88a14.75,14.75,0,0,1,3,6.28,12.35,12.35,0,0,0,4,6.93,8.33,8.33,0,0,0,5.92,2.26c3.64,0,8.18-1.77,14.06-4.63,7.75-3.78,12.25-3.05,13.55-2.7a18.9,18.9,0,0,0,.67,3.09,33.85,33.85,0,0,0,27.34,23.74h.1a1,1,0,0,0,.09-2c-.78-.08-19.23-2.07-25.61-22.35-2.5-7.92,1.31-21.12,4.08-30.76C77.57,80,79.86,72,80.61,69.37Z" fill="#ffd4cc"/><path d="M93.58,126.92c-.78-.08-19.23-2.07-25.61-22.35-2.5-7.92,1.31-21.12,4.08-30.76.58-2,1.12-3.9,1.58-5.61a1,1,0,0,0-1.94-.51c-.45,1.7-1,3.58-1.57,5.57-2.44,8.49-5.37,18.66-4.94,26.73-2.21-.41-6.94-.55-14.23,3-10.1,4.92-14.58,5.6-17.73,2.7a10.41,10.41,0,0,1-3.38-6,16.64,16.64,0,0,0-3.38-7c-1.44-1.8-3.53-1.7-4.91-1.63-.44,0-1.1.05-1.21,0-.23-.61.6-3.35,1.78-5.87A1,1,0,0,0,21,83.84c-2.1.46-4.43.63-5,.37-.27-.66-.12-3.26,0-5.36.09-1.68.2-3.58.2-5.45a1,1,0,0,0-1-1c-2.64,0-9.1-2.16-9.1-5,0-1.15,1.1-3.37,2.38-6,2.6-5.24,6.16-12.42,6.16-20.75,0-4.76-1.37-12.91-2.05-16.7,4.18,2,9.66,2.5,16,3.08A116.35,116.35,0,0,1,42,28.85l.21,0a1,1,0,0,0,.21-2,117.83,117.83,0,0,0-13.66-1.8c-6.25-.57-11.64-1.06-15.51-3C1.67,16.4,2,7,2,6.56a1,1,0,0,0-2-.11c0,.43-.4,10,10.29,16.34.42,2.23,2.31,12.54,2.31,17.91,0,7.86-3.44,14.79-6,19.86-1.5,3-2.59,5.22-2.59,6.84,0,4.3,6.8,6.5,10.09,6.92,0,1.52-.11,3-.19,4.41-.21,3.69-.28,5.67.37,6.63s3,1.11,5.18.78c-.86,2.13-1.64,4.73-.94,5.94s1.92,1,3.06,1c1.48-.07,2.5-.05,3.25.88a14.75,14.75,0,0,1,3,6.28,12.35,12.35,0,0,0,4,6.93,8.32,8.32,0,0,0,5.92,2.26c3.64,0,8.18-1.77,14.06-4.63,7.75-3.78,12.25-3.05,13.55-2.7a18.91,18.91,0,0,0,.67,3.09,33.85,33.85,0,0,0,27.34,23.74h.1a1,1,0,0,0,.09-2ZM71.89,54.54l1.46-1.46L92.79,71.34a1,1,0,1,0,1.38-1.46L74.78,51.66a5,5,0,0,0,0-7L59.13,29.05a5,5,0,0,0-7.1,0L47.77,33.3a5,5,0,0,0,0,7.07L63.39,55.93a5,5,0,0,0,7.08,0L92.75,79.48a1,1,0,0,0,1.46-1.37Zm-2.11-.73h0l-.7.7a3,3,0,0,1-4.26,0L49.19,39a3,3,0,0,1,0-4.24l4.26-4.24a3,3,0,0,1,4.26,0L73.34,46a3,3,0,0,1,0,4.24l-.71.7h0ZM48.78,25a1,1,0,0,0,1-1c.2-5,2.6-9.68,4.28-12.41a13,13,0,0,0,3,7.28,8,8,0,0,0,6,2.45c6.18,0,8.37-3.73,8.37-6.92A34.61,34.61,0,0,0,69.29,3.85a28.63,28.63,0,0,1,10.49,22A20,20,0,0,1,76.92,36.1a1,1,0,0,0,1.72,1,22,22,0,0,0,3.15-11.27C81.79,8.56,68.18.47,67.61.14a1,1,0,0,0-1.18.12,1,1,0,0,0-.25,1.15c0,.07,3.31,7.46,3.31,13.05,0,1.15-.46,4.92-6.36,4.92a6,6,0,0,1-4.57-1.82C55.67,14.52,56,8.71,56,8.65A1,1,0,0,0,54.18,8c-.25.31-6,7.65-6.37,16A1,1,0,0,0,48.78,25Z" fill="#0a282d"/></svg>