<svg xmlns="http://www.w3.org/2000/svg" viewBox="0 0 108.47 130.95"><title>Asset 7</title><path d="M80.91,59.4l.11-.07,27-18.86a1,1,0,0,0,.25-1.39L98.54,25.2A1,1,0,0,0,97.15,25L71,43.21c-9.73-13.66-26.83-14.74-37.36-15.7-6.22-.57-11.59-1.06-15.44-3C6.68,18.87,7,9.47,7,9.05a1,1,0,0,0-.94-1A1,1,0,0,0,5,8.95c0,.43-.4,9.92,10.25,16.28.42,2.22,2.3,12.49,2.3,17.85,0,7.83-3.43,14.74-5.93,19.79-1.5,3-2.58,5.2-2.58,6.81,0,4.29,6.77,6.48,10.05,6.9,0,1.51-.11,3-.19,4.39-.2,3.68-.28,5.64.36,6.61s3,1.1,5.16.77c-.86,2.13-1.63,4.71-.94,5.91s1.92,1,3,1c1.47-.07,2.49-.05,3.23.88a14.68,14.68,0,0,1,3,6.25,12.31,12.31,0,0,0,3.94,6.9,8.29,8.29,0,0,0,5.89,2.25c3.63,0,8.15-1.76,14-4.61,7.72-3.76,12.19-3,13.49-2.69a18.84,18.84,0,0,0,.66,3.08A33.7,33.7,0,0,0,98,130.95h.09a1,1,0,0,0,.09-2,31.61,31.61,0,0,1-25.5-22.27c-2.48-7.89,1.3-21,4.07-30.65C77.24,74.28,80,63.2,80.91,59.4Z" fill="#ffd4cc"/><path d="M103.29,31.07,93.54,17.2A1,1,0,0,0,92.14,17l-27,18.86L53,44.29l-17.2,4.77a1,1,0,0,0-.55,1.53L51.85,74.26a1,1,0,0,0,.81.43h0a1,1,0,0,0,.81-.42L63.86,59.8,76,51.32l27-18.86A1,1,0,0,0,103.29,31.07ZM52.67,72l-15-21.36L53,46.35l1.4,2,7.53,10.72ZM63.4,57.69l-8.6-12.24L65.44,38,74,50.26Zm12.29-8.57-8.6-12.24L92.47,19.16l8.6,12.24ZM63,54.35a1,1,0,0,0,1.39.25L70.91,50a1,1,0,1,0-1.15-1.63L63.21,53A1,1,0,0,0,63,54.35ZM83,39.18l-3.28,2.29a1,1,0,0,0,1.15,1.63l3.28-2.29A1,1,0,1,0,83,39.18Zm9.33-12.81,3,4.23-8,5.58a1,1,0,0,0,1.15,1.63l8.82-6.16a1,1,0,0,0,.25-1.39l-3.55-5a1,1,0,0,0-1.64,1.14Zm.89,94.6A31.61,31.61,0,0,1,67.67,98.7c-2.48-7.89,1.3-21,4.07-30.65.58-2,1.12-3.89,1.57-5.59a1,1,0,0,0-1.93-.51c-.45,1.69-1,3.56-1.56,5.55C67.38,76,64.46,86.09,64.89,94.13c-2.2-.41-6.91-.55-14.16,3-10.06,4.9-14.52,5.58-17.66,2.69a10.38,10.38,0,0,1-3.37-5.94,16.59,16.59,0,0,0-3.37-7c-1.44-1.79-3.52-1.69-4.89-1.62-.43,0-1.09.05-1.2,0-.23-.6.6-3.34,1.77-5.85a1,1,0,0,0-.13-1,1,1,0,0,0-1-.35c-2.09.46-4.4.63-5,.37-.27-.66-.12-3.25,0-5.34.09-1.67.2-3.57.2-5.43a1,1,0,0,0-1-1c-2.63,0-9.06-2.16-9.06-5,0-1.14,1.1-3.36,2.37-5.93,2.59-5.22,6.14-12.38,6.14-20.67,0-4.74-1.36-12.87-2-16.64,4.16,2,9.61,2.49,15.92,3.07,10.34.95,22.05,2,31.18,10.16a1,1,0,1,0,1.33-1.48c-9.62-8.58-21.68-9.69-32.33-10.66-6.22-.57-11.59-1.06-15.44-3C1.68,10.87,2,1.47,2,1.05a1,1,0,0,0-.94-1A1,1,0,0,0,0,.95c0,.42-.4,9.92,10.25,16.28.42,2.22,2.3,12.49,2.3,17.85,0,7.83-3.43,14.74-5.93,19.79-1.5,3-2.58,5.2-2.58,6.81,0,4.29,6.77,6.48,10.05,6.9,0,1.51-.11,3-.19,4.39-.21,3.68-.28,5.64.36,6.61s3,1.1,5.16.77c-.86,2.13-1.63,4.71-.94,5.91s1.92,1,3,1c1.47-.07,2.49-.05,3.23.88a14.68,14.68,0,0,1,3,6.26,12.32,12.32,0,0,0,3.94,6.9,8.29,8.29,0,0,0,5.89,2.25c3.63,0,8.15-1.76,14-4.61,7.72-3.76,12.19-3,13.49-2.69a18.82,18.82,0,0,0,.66,3.08A33.7,33.7,0,0,0,93,122.95h.09a1,1,0,0,0,.09-2Z" fill="#0a282d"/></svg>