<svg xmlns="http://www.w3.org/2000/svg" viewBox="0 0 129 123.8"><title>Asset 8</title><path d="M111,80a1,1,0,1,0,2,0V54a46,46,0,1,0-92,0V80a1,1,0,1,0,2,0V72.85l2.68.14c.77,0,1.55.06,2.32.06,1,0,2.08-.05,3.13-.14l-.93,3.65a10.81,10.81,0,0,0,.32,6.36l1.86,5.12a10.76,10.76,0,0,0,4.82,5.7,23.08,23.08,0,0,0,4.67,8.31L56.77,119a13,13,0,0,0,9.74,4.41h1A13,13,0,0,0,77.23,119l14.9-16.93a23.08,23.08,0,0,0,4.67-8.31,10.76,10.76,0,0,0,4.82-5.7l1.86-5.12a10.81,10.81,0,0,0,.32-6.36l-.93-3.65c1,.09,2.09.14,3.13.14.78,0,1.56,0,2.32-.06l2.68-.14Zm17,33.74a1,1,0,0,0-1,1,7,7,0,1,1-14,0V86.66a1,1,0,1,0-2,0v28.11a9,9,0,1,0,18,0A1,1,0,0,0,128,113.76ZM22,85.65a1,1,0,0,0-1,1v28.11a7,7,0,1,1-14,0,1,1,0,1,0-2,0,9,9,0,1,0,18,0V86.66A1,1,0,0,0,22,85.65Z" fill="#ffd4cc"/><path d="M106,72.21a1,1,0,1,0,2,0v-26a46,46,0,1,0-92,0v26a1,1,0,1,0,2,0V65l2.68.14c.77,0,1.55.06,2.32.06,1,0,2.08-.05,3.13-.14l-.93,3.65a10.81,10.81,0,0,0,.32,6.36l1.86,5.12a10.76,10.76,0,0,0,4.82,5.7,23.08,23.08,0,0,0,4.67,8.31l14.9,16.93a13,13,0,0,0,9.74,4.41h1a13,13,0,0,0,9.74-4.41l14.9-16.93a23.08,23.08,0,0,0,4.67-8.31,10.76,10.76,0,0,0,4.82-5.7l1.86-5.12a10.81,10.81,0,0,0,.32-6.36l-.93-3.65c1,.09,2.09.14,3.13.14.78,0,1.56,0,2.32-.06L106,65ZM29.26,79.56,27.4,74.44a8.8,8.8,0,0,1-.26-5.18l1.11-4.4q1.43-.21,2.85-.53V79a23.17,23.17,0,0,0,.35,3.95A8.78,8.78,0,0,1,29.26,79.56ZM90.9,79a21.11,21.11,0,0,1-5.26,14l-14.9,16.93a11,11,0,0,1-8.24,3.73h-1a11,11,0,0,1-8.24-3.73L38.37,92.93A21.11,21.11,0,0,1,33.1,79V63.82C44.38,60.67,55,52.47,62,41.1c7,11.36,17.62,19.57,28.9,22.72Zm5.7-4.53-1.86,5.12a8.78,8.78,0,0,1-2.19,3.36A23.16,23.16,0,0,0,92.9,79V64.32q1.42.32,2.85.53l1.11,4.4A8.8,8.8,0,0,1,96.6,74.44Zm6.62-11.26c-.73,0-1.47.06-2.22.06C83.3,63.24,69.39,50,62.87,38.65l0,0a1,1,0,0,0-.13-.15,1,1,0,0,0-.15-.13l0,0-.11,0a1,1,0,0,0-.2-.07h-.37l-.2.07-.11,0,0,0a1,1,0,0,0-.15.14,1,1,0,0,0-.13.15l0,0C54.61,50,40.7,63.24,23,63.24c-.74,0-1.48,0-2.22-.06L18,63V46.18a44,44,0,1,1,88,0V63ZM62.94,92.56l-.94.59-.94-.59h0a5.69,5.69,0,0,0-6.75.34,3.77,3.77,0,0,1-3.07.77L50,93.53a1,1,0,0,0-.8,1.73A18.5,18.5,0,0,0,62,100a18.51,18.51,0,0,0,12.83-4.8A1,1,0,0,0,74,93.53l-1.25.15a3.72,3.72,0,0,1-3-.78A5.68,5.68,0,0,0,62.94,92.56Zm8,3.08a18.39,18.39,0,0,1-17.94,0,5.73,5.73,0,0,0,2.53-1.18A3.72,3.72,0,0,1,60,94.27l1.47.92h0l.17.07.08,0h.51l.08,0,.17-.07h0L64,94.27h0l0,0a3.7,3.7,0,0,1,4.42.21A5.76,5.76,0,0,0,71,95.64Zm-3.35,4.72a8.28,8.28,0,0,1-11.21,0,1,1,0,0,0-1.33,1.5,10.28,10.28,0,0,0,13.87,0,1,1,0,0,0-1.33-1.5ZM123,106a1,1,0,0,0-1,1,7,7,0,1,1-14,0V78.85a1,1,0,1,0-2,0V107a9,9,0,1,0,18,0A1,1,0,0,0,123,106ZM17,77.85a1,1,0,0,0-1,1V107a7,7,0,1,1-14,0,1,1,0,1,0-2,0,9,9,0,1,0,18,0V78.85A1,1,0,0,0,17,77.85Z" fill="#0a282d"/></svg>