<svg xmlns="http://www.w3.org/2000/svg" viewBox="0 0 138.7 132"><title>Asset 11</title><path d="M78.84,86h-3V71a1,1,0,0,0-1-1h-2c-.51-20.26-16.3-24.16-24-26.05l-.37-.09a1,1,0,0,0-.66,1.88c2.34,1.08,3.53,3.66,3.53,7.66,0,3.07-1.33,5.62-17.65,5.62-13.88,0-17,8.2-17.62,11H14a1,1,0,0,0-1,1V86H10a5,5,0,0,0-5,5v36a5,5,0,0,0,5,5H78.84a5,5,0,0,0,5-5V91A5,5,0,0,0,78.84,86Zm55.32-48.53A17,17,0,0,0,124,32.17V21a1,1,0,0,0-1-1h-3.49V9a1,1,0,0,0-1-1h-11l-.12,0-.12,0h-14a1,1,0,0,0,0,2H106.5V20H103a1,1,0,0,0-1,1V32.17a17,17,0,0,0-14.69,18.1L94,131.08a1,1,0,0,0,1,.92h35.92a1,1,0,0,0,1-.92l6.71-80.83A17.08,17.08,0,0,0,134.17,37.43Z" fill="#ffd4cc"/><path d="M73.84,78h-3V63a1,1,0,0,0-1-1h-2c-.51-20.26-16.3-24.16-24-26.05l-.37-.09a1,1,0,0,0-.66,1.88c2.34,1.08,3.53,3.66,3.53,7.66,0,3.07-1.33,5.62-17.65,5.62-13.88,0-17,8.2-17.62,11H9a1,1,0,0,0-1,1V78H5a5,5,0,0,0-5,5v36a5,5,0,0,0,5,5H73.84a5,5,0,0,0,5-5V83A5,5,0,0,0,73.84,78ZM28.78,53c14.69,0,19.65-1.92,19.65-7.62a12.59,12.59,0,0,0-1.53-6.61C54.77,41,65.46,45.81,65.89,62H13.19C13.89,59.35,16.81,53,28.78,53ZM10,70H38.92a1,1,0,0,0,0-2H10V64H68.86v7.55h-17a1,1,0,0,0,0,2h17V78H10Zm66.86,49a3,3,0,0,1-3,3H5a3,3,0,0,1-3-3V83a3,3,0,0,1,3-3H73.84a3,3,0,0,1,3,3Zm52.33-89.53A17,17,0,0,0,119,24.17V13a1,1,0,0,0-1-1h-3.49V1a1,1,0,0,0-1-1h-11l-.12,0-.12,0h-14a1,1,0,0,0,0,2H101.5V12H98a1,1,0,0,0-1,1V24.17a17,17,0,0,0-14.69,18.1L89,123.08a1,1,0,0,0,1,.92h35.92a1,1,0,0,0,1-.92l6.71-80.83A17.07,17.07,0,0,0,129.17,29.43ZM103.5,2h9V12h-9ZM99,14h18V24H99Zm32.66,28.1L125,122H90.94L84.31,42.11A15,15,0,0,1,99.23,26h17.51a15,15,0,0,1,14.93,16.1ZM93.08,35.29a11.41,11.41,0,0,1,8.46-3.7,1,1,0,0,0,0-2A13.55,13.55,0,0,0,88,44.16L89.5,63.95a1,1,0,0,0,1,.93h.07a1,1,0,0,0,.92-1.07L90,44A11.46,11.46,0,0,1,93.08,35.29ZM60.87,91H18a1,1,0,0,0-1,1v18a1,1,0,0,0,1,1H60.87a1,1,0,0,0,1-1V92A1,1,0,0,0,60.87,91Zm-1,18H19V93H59.87ZM108,61a15,15,0,1,0,15,15A15,15,0,0,0,108,61Zm0,28a13,13,0,1,1,13-13A13,13,0,0,1,108,89Z" fill="#0a282d"/></svg>