<svg xmlns="http://www.w3.org/2000/svg" viewBox="0 0 125.78 69.79"><title>Asset 1</title><path d="M75.85,11.73a5.48,5.48,0,0,0-1,1.09,26.51,26.51,0,0,0-1.7,2.63q-1,1.68-2.07,4A53,53,0,0,0,69,24.7h.61c.25,0,.5,0,.76,0l.72-.08a3.08,3.08,0,0,0,.54-.12c.31-.11.5-.12.58,0s0,.23-.31.43a4.08,4.08,0,0,1-1.56.64,15.52,15.52,0,0,1-1.63.25l-.44,1.33q-.28.84-.59,1.88t-.59,2.14a18.37,18.37,0,0,0-.41,2.09A9.22,9.22,0,0,0,66.62,35,1.88,1.88,0,0,0,67,36.15a1.1,1.1,0,0,0,.81.38,1.73,1.73,0,0,0,1-.38A6.91,6.91,0,0,0,70.07,35a14.36,14.36,0,0,0,1.09-1.5q.51-.81,1-1.66T73,30.2q.26-.56.51-.46t0,.69q-.66,1.35-1.15,2.29t-.94,1.63a10.33,10.33,0,0,1-.9,1.22q-.46.53-1,1.05a4,4,0,0,1-1.86,1.1,2.53,2.53,0,0,1-1.86-.21,2,2,0,0,1-1-1.25,5.84,5.84,0,0,1-.21-2,12.77,12.77,0,0,1,.35-2.37q.3-1.25.67-2.44t.74-2.17l.56-1.55-1.94,0-3.06-.12-3.36-.13-2.8-.13A31.48,31.48,0,0,1,53.12,31a26.17,26.17,0,0,1-3.77,5.09,22.05,22.05,0,0,1-4.87,3.87,16,16,0,0,1-11.36,1.73,11.27,11.27,0,0,1-4.53-2.11,8.31,8.31,0,0,1-2.71-3.82,9.22,9.22,0,0,1,0-5.42,4.89,4.89,0,0,1,.71-1.55,7.91,7.91,0,0,1,1.12-1.33,7.37,7.37,0,0,1,1.2-.94,2,2,0,0,1,1-.36q.53,0,.43.18a.65.65,0,0,1-.36.28,3.59,3.59,0,0,0-.92.63,7,7,0,0,0-1,1.13,8.66,8.66,0,0,0-.89,1.55,6.6,6.6,0,0,0-.53,1.89A7,7,0,0,0,26.81,35a6.19,6.19,0,0,0,1.37,2.32,7.34,7.34,0,0,0,2.17,1.56,11.25,11.25,0,0,0,2.63.89,13,13,0,0,0,2.75.26,12.2,12.2,0,0,0,2.53-.28,20.67,20.67,0,0,0,6-2.34,20.76,20.76,0,0,0,7.59-7.73A34,34,0,0,0,54,25.26a3.53,3.53,0,0,0-1,.15,6.07,6.07,0,0,0-1,.38,2.2,2.2,0,0,1-.36.13,1.51,1.51,0,0,1-.41.06.26.26,0,0,1-.25-.12c0-.08,0-.22.13-.44a3,3,0,0,1,.81-.77,2.54,2.54,0,0,1,1.23-.48h1.28Q55,22.63,55.77,21t1.42-3.14l1.23-2.63q.54-1.15.81-1.68-1.61.2-3.31.31t-3.34.35a22.62,22.62,0,0,0-3.18.67,11.65,11.65,0,0,0-2.85,1.25,8.83,8.83,0,0,0-2.32,2.07,9.68,9.68,0,0,0-1.6,3.18,5.67,5.67,0,0,0-.26,2.52,4.18,4.18,0,0,0,.76,2,2.91,2.91,0,0,0,1.58,1.07A3.59,3.59,0,0,0,47,26.71a3.21,3.21,0,0,0,1.55-1.2,7.52,7.52,0,0,0,1-1.83,8.09,8.09,0,0,0,.44-1.78,1.76,1.76,0,0,0-.07-1.05.52.52,0,0,1-.12-.33.18.18,0,0,1,.12-.16.29.29,0,0,1,.21,0,.49.49,0,0,1,.21.25,3.93,3.93,0,0,1,.35,2.07,5.2,5.2,0,0,1-.62,2,6.05,6.05,0,0,1-1.32,1.63,5.45,5.45,0,0,1-1.69,1,4.66,4.66,0,0,1-2.85.21,5,5,0,0,1-2.34-1.3,5.34,5.34,0,0,1-1.38-2.39,5.84,5.84,0,0,1,0-3,8.26,8.26,0,0,1,1.71-3.44,9.74,9.74,0,0,1,2.78-2.22,13.7,13.7,0,0,1,3.52-1.28,33.13,33.13,0,0,1,3.88-.63q2-.2,3.87-.28t3.52-.25c.07-.09.18-.26.35-.53a7.19,7.19,0,0,1,.61-.82,7.5,7.5,0,0,1,.77-.79,2.39,2.39,0,0,1,.81-.49,2.11,2.11,0,0,1,1.3,0,.87.87,0,0,1,.58.91,1.45,1.45,0,0,1-.43,1,4,4,0,0,1-1,.76,5.48,5.48,0,0,1-1.27.48,5,5,0,0,1-1.17.17q-.3.63-.71,1.55t-.82,2l-.84,2.21L57,21.31q-.38,1-.66,1.74L56,24.17q1.65,0,3.27.08t3.09.2l2.7.2q1.23.08,2.09.08.13-.36.53-1.38t1-2.39q.57-1.36,1.3-2.9t1.48-2.85a19.81,19.81,0,0,1,1.5-2.27,3.36,3.36,0,0,1,1.4-1.19q.49-.16,1-.28a6,6,0,0,1,.76-.15c.2,0,.3,0,.3.07S76.16,11.58,75.85,11.73ZM62.55,11c-.09,0-.2,0-.35.1s-.3.25-.48.41a5.92,5.92,0,0,0-.51.54c-.16.2-.3.37-.41.53a4.72,4.72,0,0,0,1.51-.43,1.19,1.19,0,0,0,.56-.53.42.42,0,0,0,0-.44A.4.4,0,0,0,62.55,11Z" fill="#01282d"/><path d="M85,30.36q-.36.76-.91,1.78a20.12,20.12,0,0,1-1.2,2,9.45,9.45,0,0,1-1.4,1.63,2.57,2.57,0,0,1-1.46.74,1.92,1.92,0,0,1-.86-.15,1.56,1.56,0,0,1-.76-.66,2.82,2.82,0,0,1-.35-1.32,6.66,6.66,0,0,1,.31-2.12q-.39.66-1,1.53A11,11,0,0,1,76,35.33a3.79,3.79,0,0,1-1.76,1.09,1.65,1.65,0,0,1-1.37-.25,2.31,2.31,0,0,1-.81-1.3A5.19,5.19,0,0,1,72,32.78a9.77,9.77,0,0,1,.81-2.63,12.49,12.49,0,0,1,1.89-2.91,6.69,6.69,0,0,1,1.76-1.51,7.55,7.55,0,0,1,2.11-.89,4.76,4.76,0,0,1,2.07-.07,3,3,0,0,1,1.69,1q.36.36.21.69a.48.48,0,0,1-.58.26,1.45,1.45,0,0,0-1.07-1.12,2.39,2.39,0,0,0-1.73.3,9.49,9.49,0,0,0-2.3,1.93,17.41,17.41,0,0,0-2.07,2.78l-.3.53c-.13.24-.27.52-.41.84s-.27.65-.39,1a5,5,0,0,0-.25,1,1.88,1.88,0,0,0,.11,1.25.77.77,0,0,0,.69.4,2,2,0,0,0,1-.38,5.47,5.47,0,0,0,1.19-1.07,19.86,19.86,0,0,0,1.56-2.22q.71-1.17,1.37-2.39a10.89,10.89,0,0,1,1-1.61,1.34,1.34,0,0,1,1.23-.49,5.1,5.1,0,0,1,.67.12,1.71,1.71,0,0,0,.71,0,6,6,0,0,0-.71,1q-.44.71-.92,1.61t-.87,1.86A10.2,10.2,0,0,0,80,33.65q-.39,2,.33,2A1.56,1.56,0,0,0,81.48,35a11.61,11.61,0,0,0,1.23-1.58q.61-.92,1.1-1.86t.76-1.46c.15-.29.31-.39.46-.33S85.19,30,85,30.36Z" fill="#01282d"/><path d="M85,33.62A3.1,3.1,0,0,0,84.89,35a.8.8,0,0,0,.81.66,1.25,1.25,0,0,0,.79-.15,2.63,2.63,0,0,0,.69-.48,10.43,10.43,0,0,0,1.61-2.21q.79-1.38,1.48-2.76c.13-.31.27-.42.43-.33s.15.3,0,.63l-.82,1.71a14.68,14.68,0,0,1-1.17,2,8.59,8.59,0,0,1-1.46,1.65,2.58,2.58,0,0,1-1.71.67A2.09,2.09,0,0,1,84.11,36a2,2,0,0,1-.66-1.07,3.61,3.61,0,0,1-.07-1.38,5.77,5.77,0,0,1,.36-1.4l2.11-5.37a.94.94,0,0,0,0-.86,5.21,5.21,0,0,0-.31-.53l1.81,0q.79,0,.87.28a1.43,1.43,0,0,1-.18.87L85.4,32.67a1.64,1.64,0,0,1-.16.39l-.13.33Zm4.64-11a1.6,1.6,0,0,1-.56,1,1.53,1.53,0,0,1-1,.39,1.09,1.09,0,0,1-.89-.39,1.2,1.2,0,0,1-.26-1,1.59,1.59,0,0,1,.56-1,1.53,1.53,0,0,1,1-.39,1.14,1.14,0,0,1,.91.39A1.09,1.09,0,0,1,89.64,22.66Z" fill="#01282d"/><path d="M99.29 30.39q-.36.76-.86 1.71a19.08 19.08 0 0 1-1.09 1.84A8.77 8.77 0 0 1 96 35.51a3.48 3.48 0 0 1-1.51.87 1.86 1.86 0 0 1-.94 0 1.64 1.64 0 0 1-.87-.64 2.55 2.55 0 0 1-.43-1.33 5.06 5.06 0 0 1 .43-2.12q.2-.5.48-1.05t.59-1.09l.58-1q.26-.46.39-.76a.78.78 0 0 0-.39-1.17 5.65 5.65 0 0 0-2.14-.38l-.4 1.05q-.3.79-.72 1.79t-1 2A20.42 20.42 0 0 1 89 33.64a9.34 9.34 0 0 1-1.18 1.5c-.13.11-.24.1-.31 0a.35.35 0 0 1 0-.41 20.69 20.69 0 0 0 1.81-2.82 31.4 31.4 0 0 0 2.55-6.3q.44-1.58.71-3a1.21 1.21 0 0 1 .53-.91.78.78 0 0 1 .77 0 1.48 1.48 0 0 1 .63.74 2.22 2.22 0 0 1 .08 1.37 2.75 2.75 0 0 1-.77 1.3 8 8 0 0 1-1 .91q.92.07 2.12 0t2.42-.16a.71.71 0 0 1 0 .48 4.2 4.2 0 0 1-.16.66c-.08.23-.17.47-.28.72l-.3.68-.44.89-.69 1.4q-.38.77-.72 1.63a10.7 10.7 0 0 0-.51 1.56 3 3 0 0 0-.08 1.17.56.56 0 0 0 .58.49 1.65 1.65 0 0 0 1.1-.66 11.54 11.54 0 0 0 1.18-1.55 20.4 20.4 0 0 0 1.05-1.83l.74-1.46q.23-.43.44-.3T99.29 30.39zM27.7 45.53a4.39 4.39 0 0 1-.53 1.94 6 6 0 0 1-1.73 2 11.48 11.48 0 0 1-3.16 1.65 19.61 19.61 0 0 1-4.82 1 35 35 0 0 1-5.2.13 18.63 18.63 0 0 1-4.74-.89q-.46.63-1.09 1.6T5.14 55q-.67 1.12-1.32 2.32a21.9 21.9 0 0 0-1.07 2.29 10.9 10.9 0 0 0-1 5 2.86 2.86 0 0 0 1.46 2.45A4.27 4.27 0 0 0 6.42 67a13.9 13.9 0 0 0 4.26-2.55 33.88 33.88 0 0 0 2.53-2.39q1.25-1.3 2.39-2.67t2.09-2.73a26.93 26.93 0 0 0 1.61-2.58 4.07 4.07 0 0 1 1.41-1.74q.66-.33 1 0a1.28 1.28 0 0 1 .26 1.1A2.8 2.8 0 0 1 21.18 55a17 17 0 0 0-1.37 1.81A20.8 20.8 0 0 0 18.56 59a21.94 21.94 0 0 0-1 2.39 16 16 0 0 0-.68 2.45 6.23 6.23 0 0 0 0 3 1.32 1.32 0 0 0 1.1 1 2.87 2.87 0 0 0 1.78-.63 9.53 9.53 0 0 0 2-1.91q.76-1 1.53-2.21a19.29 19.29 0 0 0 1.33-2.47c.15-.31.33-.46.53-.46s.21.2 0 .59-.34.71-.56 1.15-.47.89-.74 1.37-.56.95-.86 1.43a14.62 14.62 0 0 1-.91 1.32 8.69 8.69 0 0 1-1 1.07 7.67 7.67 0 0 1-1.17.9 6 6 0 0 1-1.32.63 4.33 4.33 0 0 1-1.38.23 2.15 2.15 0 0 1-1.48-.5 2.89 2.89 0 0 1-.82-1.27 6 6 0 0 1-.3-1.73 9 9 0 0 1 .13-1.89 10 10 0 0 1 .46-1.75 5.28 5.28 0 0 1 .66-1.3q-.66.79-1.61 1.79t-2.06 2a25.31 25.31 0 0 1-2.35 1.89 14.41 14.41 0 0 1-2.52 1.45 8.42 8.42 0 0 1-2.55.69 4.82 4.82 0 0 1-2.44-.36A3.35 3.35 0 0 1 .58 66.17 7.09 7.09 0 0 1 0 63.11a14.91 14.91 0 0 1 .63-3.92 20.5 20.5 0 0 1 1.86-4.38q.62-1.12 1.33-2.17a18.1 18.1 0 0 1 1.56-2 13.87 13.87 0 0 1-1.83-1 7.79 7.79 0 0 1-1.47-1.25 2.53 2.53 0 0 1-.54-1 4.43 4.43 0 0 1-.21-1.1 3.28 3.28 0 0 1 .08-1 1.13 1.13 0 0 1 .38-.66c.2-.26.39-.32.58-.18s.19.41 0 .81a1.73 1.73 0 0 0-.1 1.35 4.47 4.47 0 0 0 .79 1.25A8.45 8.45 0 0 0 6 49.94a38 38 0 0 1 3.36-3.27 25.9 25.9 0 0 1 3.83-2.75A20.39 20.39 0 0 1 17.41 42 15.47 15.47 0 0 1 22 41.35a6.62 6.62 0 0 1 4.16 1.17A3.65 3.65 0 0 1 27.7 45.53zm-1.35-.4a2.4 2.4 0 0 0-1.2-2.2 5.75 5.75 0 0 0-3-.72 12.6 12.6 0 0 0-4.28.71 16.26 16.26 0 0 0-3.69 1.88 21.84 21.84 0 0 0-3.23 2.7Q9.43 49 8 50.66a16.2 16.2 0 0 0 4.1.76 37.87 37.87 0 0 0 5.32-.13 16.43 16.43 0 0 0 3.69-.69 10.34 10.34 0 0 0 2.8-1.33 6.07 6.07 0 0 0 1.78-1.86A4.38 4.38 0 0 0 26.35 45.13z" fill="#01282d"/><path d="M33.69,60.77q-.36.76-.86,1.71a18.87,18.87,0,0,1-1.09,1.84,8.72,8.72,0,0,1-1.32,1.56,3.47,3.47,0,0,1-1.51.87,1.85,1.85,0,0,1-.94,0,1.64,1.64,0,0,1-.87-.64,2.56,2.56,0,0,1-.43-1.33,5.06,5.06,0,0,1,.43-2.12c.13-.33.29-.68.48-1.05s.38-.74.59-1.09l.58-1q.26-.46.39-.76a.78.78,0,0,0-.39-1.17,5.63,5.63,0,0,0-2.14-.38l-.39,1.05q-.3.79-.72,1.79t-1,2A20.42,20.42,0,0,1,23.42,64a9.37,9.37,0,0,1-1.19,1.5c-.13.11-.24.1-.31,0a.35.35,0,0,1,0-.41,20.78,20.78,0,0,0,1.81-2.81,31,31,0,0,0,1.46-3.13A31,31,0,0,0,26.33,56q.44-1.58.71-3a1.21,1.21,0,0,1,.53-.91.78.78,0,0,1,.77,0,1.48,1.48,0,0,1,.63.74A2.23,2.23,0,0,1,29,54.19a2.75,2.75,0,0,1-.77,1.3,8,8,0,0,1-1,.91q.92.07,2.12,0t2.42-.16a.72.72,0,0,1,0,.48,4.27,4.27,0,0,1-.16.66c-.08.23-.17.47-.28.72l-.3.67-.44.89L30,61.08q-.38.77-.72,1.63a10.65,10.65,0,0,0-.51,1.56,3,3,0,0,0-.08,1.17.56.56,0,0,0,.58.49,1.65,1.65,0,0,0,1.1-.66,11.48,11.48,0,0,0,1.18-1.55,20.37,20.37,0,0,0,1.05-1.83l.74-1.46c.15-.28.3-.38.44-.3S33.86,60.44,33.69,60.77Z" fill="#01282d"/><path d="M41.36 54.28a.18.18 0 0 1 .18.12.47.47 0 0 1 0 .25.66.66 0 0 1-.08.25.21.21 0 0 1-.2.12H39.38a26.68 26.68 0 0 1-1.88 2.76A21.36 21.36 0 0 1 35 60.44a5.41 5.41 0 0 0-.25.89q-.12.56-.25 1.12t-.26 1.35a2.39 2.39 0 0 0 0 1.3 1.2 1.2 0 0 0 .49.67 1.11 1.11 0 0 0 .79.12 2 2 0 0 0 .86-.38 7.75 7.75 0 0 0 2-2.24q.84-1.38 1.5-2.73c.13-.31.28-.43.44-.38s.16.25 0 .58q-.56 1.15-1 1.91T38.58 64a7.54 7.54 0 0 1-.71 1q-.36.43-.82.89a3.1 3.1 0 0 1-1.53.86 2.69 2.69 0 0 1-1.6-.08 2.27 2.27 0 0 1-1.17-1.08 3.42 3.42 0 0 1-.25-2.16 14.45 14.45 0 0 1 .38-1.89q.28-1.07.63-2.19t.76-2.24q.41-1.12.81-2.07H33.36a.21.21 0 0 1-.2-.12.39.39 0 0 1 0-.25.54.54 0 0 1 .1-.25.25.25 0 0 1 .21-.12h2Q36 53 36.57 51.85t1.23-2.24a6.18 6.18 0 0 1 1.83-2.12 2 2 0 0 1 1.63-.43q.66.22.76 1.32a6.57 6.57 0 0 1-.82 3.08q-.69 1.45-1.42 2.83zM37.08 55q-.53 1.22-1 2.37t-.81 2a18.18 18.18 0 0 0 1.78-2.07q.82-1.12 1.55-2.3zm3.62-4.08a7.31 7.31 0 0 0 .39-1.22 3.3 3.3 0 0 0 .12-1.1q0-.41-.38-.31t-1.09 1.18a13 13 0 0 0-1.15 2.12l-1.19 2.68h1.65A34.07 34.07 0 0 0 40.7 50.93zM76.15 46.32a6.27 6.27 0 0 1-2.21 1.05.71.71 0 0 1-.49 0 .24.24 0 0 1-.16-.21c0-.09.07-.17.21-.26a1.71 1.71 0 0 1 .61-.2 2.18 2.18 0 0 0 2-2.34 3.15 3.15 0 0 0-.69-1.71 4.23 4.23 0 0 0-1.91-1.35 8.53 8.53 0 0 0-3.21-.46 14.49 14.49 0 0 0-4.58 1 8.36 8.36 0 0 0-2.57 1.43 4.58 4.58 0 0 0-1.46 2 3 3 0 0 0 .1 2.24A5 5 0 0 0 64 49.68a16.54 16.54 0 0 0 1.73.91l2 .92q1 .48 2.07 1t2 1.07a7.71 7.71 0 0 1 2.47 2.21 5.06 5.06 0 0 1 .51 4.94 10 10 0 0 1-1.43 2.42 15.34 15.34 0 0 1-2.17 2.22 19.85 19.85 0 0 1-2.63 1.88A17.11 17.11 0 0 1 64.3 69a22 22 0 0 1-4.71.77 20.34 20.34 0 0 1-4.71-.28 13.42 13.42 0 0 1-4.13-1.42 9.06 9.06 0 0 1-3-2.63 7.3 7.3 0 0 1-1.32-4 7 7 0 0 1 .37-2.53A12.76 12.76 0 0 1 48 56.29 12 12 0 0 1 49.82 54a7.83 7.83 0 0 1 2.27-1.61 2.39 2.39 0 0 1 .4-.12.79.79 0 0 1 .35 0c.08 0 .09.08 0 .18a1.59 1.59 0 0 1-.46.44A12 12 0 0 0 51.18 54a8.83 8.83 0 0 0-1 1.33 11.25 11.25 0 0 0-1.35 3 12.31 12.31 0 0 0-.49 3.18 6.24 6.24 0 0 0 .87 3.49 7.2 7.2 0 0 0 2.39 2.35A10.55 10.55 0 0 0 55 68.6a17.08 17.08 0 0 0 4 .33 20.43 20.43 0 0 0 4-.54 15.85 15.85 0 0 0 3.65-1.33 13 13 0 0 0 3.51-2.62 9.11 9.11 0 0 0 2-3.16 5.66 5.66 0 0 0 .21-3.21 5.08 5.08 0 0 0-1.84-2.8 9.11 9.11 0 0 0-1.91-1.17q-1.15-.54-2.4-1.07T63.74 52a13.79 13.79 0 0 1-2.14-1.17 5.18 5.18 0 0 1-2.29-2.66 4.18 4.18 0 0 1 .1-2.83 6.4 6.4 0 0 1 1.91-2.53A10.37 10.37 0 0 1 64.5 41a16.3 16.3 0 0 1 2.7-.67A20.51 20.51 0 0 1 70.12 40a15.83 15.83 0 0 1 2.75.16 7.75 7.75 0 0 1 2.19.63 4.14 4.14 0 0 1 1.45 1.12 3.66 3.66 0 0 1 .74 1.45 2.78 2.78 0 0 1-.08 1.55A3.13 3.13 0 0 1 76.15 46.32zM86.12 54.28a.18.18 0 0 1 .18.12.47.47 0 0 1 0 .25.67.67 0 0 1-.08.25.21.21 0 0 1-.2.12H84.15a26.54 26.54 0 0 1-1.88 2.76 21.29 21.29 0 0 1-2.5 2.67 5.41 5.41 0 0 0-.25.89q-.12.56-.25 1.12T79 63.8a2.39 2.39 0 0 0 0 1.3 1.2 1.2 0 0 0 .49.67 1.1 1.1 0 0 0 .79.12 2 2 0 0 0 .86-.38 7.75 7.75 0 0 0 2-2.24q.84-1.38 1.5-2.73c.13-.31.28-.43.44-.38s.16.25 0 .58q-.56 1.15-1 1.91T83.34 64a7.59 7.59 0 0 1-.71 1q-.36.43-.82.89a3.1 3.1 0 0 1-1.53.86 2.69 2.69 0 0 1-1.6-.08 2.27 2.27 0 0 1-1.17-1.08 3.42 3.42 0 0 1-.25-2.16 14.45 14.45 0 0 1 .38-1.89q.28-1.07.63-2.19T79 57.08q.41-1.12.81-2.07H78.12a.21.21 0 0 1-.2-.12.39.39 0 0 1 0-.25.54.54 0 0 1 .1-.25.25.25 0 0 1 .21-.12h2q.56-1.25 1.17-2.43t1.23-2.24a6.18 6.18 0 0 1 1.83-2.12A2 2 0 0 1 86 47.06q.66.22.76 1.32A6.57 6.57 0 0 1 86 51.45q-.69 1.45-1.42 2.83zM81.84 55q-.53 1.22-1 2.37t-.81 2a18.13 18.13 0 0 0 1.78-2.07q.82-1.12 1.55-2.3zm3.62-4.08a7.31 7.31 0 0 0 .4-1.22 3.3 3.3 0 0 0 .12-1.1q0-.41-.38-.31t-1.09 1.18a12.92 12.92 0 0 0-1.15 2.12l-1.19 2.68h1.65A34 34 0 0 0 85.46 50.93z" fill="#01282d"/><path d="M96.82,60.77q-.39.86-.92,1.89a15.26,15.26,0,0,1-1.18,2,7.18,7.18,0,0,1-1.45,1.53,2.7,2.7,0,0,1-1.68.61,1.76,1.76,0,0,1-1-.28,1.68,1.68,0,0,1-.64-.82,3.64,3.64,0,0,1-.21-1.33,5.68,5.68,0,0,1,.33-1.78q-.43.76-.94,1.5A11.16,11.16,0,0,1,88,65.39a5.8,5.8,0,0,1-1.2,1,2.36,2.36,0,0,1-1.22.38,3.79,3.79,0,0,1-.58,0,1.83,1.83,0,0,1-.61-.21A1.93,1.93,0,0,1,83.9,66a1.73,1.73,0,0,1-.35-.76,3.18,3.18,0,0,1,0-1,4.38,4.38,0,0,1,.25-1,7,7,0,0,1,.43-.92q.25-.44.48-.91a.56.56,0,0,1-.31-.1c-.1-.07-.09-.21,0-.43a4.47,4.47,0,0,0,.3-.56q.13-.3.3-.59l1-1.91q.49-1,.86-1.71a1.13,1.13,0,0,1,.51-.54,1.8,1.8,0,0,1,.77-.15h2a4.07,4.07,0,0,0-.53.41,5.51,5.51,0,0,0-.48.51,6.28,6.28,0,0,0-.51.72A12.18,12.18,0,0,0,88,58.23q-.46.86-.82,1.65t-.69,1.42q-.33.72-.56,1.18a6.58,6.58,0,0,0-.66,2.14,1.6,1.6,0,0,0,.25,1.2q.31.35.94.1a4,4,0,0,0,1.42-1.17,14.39,14.39,0,0,0,1.37-1.88q.67-1.09,1.3-2.26t1.2-2.32q.58-1.15,1-2.14a1.12,1.12,0,0,1,.51-.54,1.8,1.8,0,0,1,.77-.15h1.78c-.24.2-.45.38-.63.55a3.91,3.91,0,0,0-.51.59,7.29,7.29,0,0,0-.51.86q-.26.51-.62,1.27t-.71,1.44q-.35.74-.66,1.45t-.54,1.32a5.36,5.36,0,0,0-.3,1,2.3,2.3,0,0,0,0,1.5A.8.8,0,0,0,92,66a1.85,1.85,0,0,0,1.2-.53,7.08,7.08,0,0,0,1.17-1.33,17.07,17.07,0,0,0,1.07-1.78q.51-1,.94-1.86c.13-.29.28-.39.44-.31S97,60.44,96.82,60.77Z" fill="#01282d"/><path d="M112.65,46.32a8.55,8.55,0,0,0-.84,1.2q-.61,1-1.42,2.37T108.65,53q-.94,1.71-1.81,3.42t-1.65,3.29q-.77,1.58-1.23,2.7-.13.3-.33.87a6.28,6.28,0,0,0-.28,1.17,2.27,2.27,0,0,0,.07,1,.68.68,0,0,0,.74.44,1.82,1.82,0,0,0,1.27-.66,10,10,0,0,0,1.22-1.55,18.92,18.92,0,0,0,1-1.81l.72-1.45c.13-.31.29-.43.46-.38s.19.25,0,.58-.46,1-.79,1.73a14.13,14.13,0,0,1-1.19,2,8.37,8.37,0,0,1-1.53,1.68,2.81,2.81,0,0,1-1.83.69,1.55,1.55,0,0,1-.77-.21,2.26,2.26,0,0,1-.71-.67,3.57,3.57,0,0,1-.41-1.15,3.91,3.91,0,0,1,.12-1.75q-.36.59-.84,1.33a8,8,0,0,1-1.07,1.33,4.2,4.2,0,0,1-1.32.91,2.35,2.35,0,0,1-1.58.08,2,2,0,0,1-1.46-1.37,4.82,4.82,0,0,1,0-2.39,11.24,11.24,0,0,1,1-2.78,13.77,13.77,0,0,1,1.61-2.52,8.36,8.36,0,0,1,1.55-1.38,6.71,6.71,0,0,1,1.79-.89,5.08,5.08,0,0,1,1.89-.23,4.18,4.18,0,0,1,1.84.59q1.19-2.27,2.2-4.36T109,47.9a3.21,3.21,0,0,1,1-1.45,2,2,0,0,1,1.28-.26,6,6,0,0,1,.69.12A1.78,1.78,0,0,0,112.65,46.32Zm-7.74,9.91a1.48,1.48,0,0,0-1.55-.31A5.62,5.62,0,0,0,101.44,57a13.33,13.33,0,0,0-1.94,2,17.34,17.34,0,0,0-1.6,2.42A7,7,0,0,0,97,64.13a1.79,1.79,0,0,0,.35,1.48q.43.39,1.27,0a6,6,0,0,0,1.89-1.91q.92-1.28,2.09-3.27T104.91,56.23Z" fill="#01282d"/><path d="M108.86,64a3.1,3.1,0,0,0-.12,1.41.8.8,0,0,0,.81.66,1.26,1.26,0,0,0,.79-.15,2.62,2.62,0,0,0,.69-.48,10.45,10.45,0,0,0,1.61-2.2q.79-1.38,1.48-2.77.2-.46.43-.33t0,.63l-.82,1.71a14.73,14.73,0,0,1-1.17,2,8.64,8.64,0,0,1-1.46,1.65,2.59,2.59,0,0,1-1.71.67,2.09,2.09,0,0,1-1.42-.43,2.06,2.06,0,0,1-.66-1.07,3.61,3.61,0,0,1-.07-1.38,5.78,5.78,0,0,1,.36-1.4l2.11-5.37a.94.94,0,0,0,0-.86,5.08,5.08,0,0,0-.31-.53l1.81,0q.79,0,.87.28a1.42,1.42,0,0,1-.18.87L109.26,63a1.68,1.68,0,0,1-.16.4l-.13.33Zm4.64-11a1.6,1.6,0,0,1-.56,1,1.53,1.53,0,0,1-1,.39A1.09,1.09,0,0,1,111,54a1.2,1.2,0,0,1-.26-1,1.59,1.59,0,0,1,.56-1,1.53,1.53,0,0,1,1-.39,1.14,1.14,0,0,1,.9.39A1.09,1.09,0,0,1,113.5,53Z" fill="#01282d"/><path d="M125.72 60.64l-.64 1.45a13.86 13.86 0 0 1-1.1 2 8.4 8.4 0 0 1-1.53 1.73 2.86 2.86 0 0 1-1.89.75 3 3 0 0 1-1.27-.24 2.59 2.59 0 0 1-.84-.6 6.54 6.54 0 0 1-1.42.82 3.36 3.36 0 0 1-1.45.27 2.21 2.21 0 0 1-1.5-.54 2.52 2.52 0 0 1-.72-1.35 5.26 5.26 0 0 1 0-1.91 9 9 0 0 1 .63-2.16 12.19 12.19 0 0 1 1.22-2.14 10.87 10.87 0 0 1 1.56-1.78 7.81 7.81 0 0 1 1.73-1.2 3.57 3.57 0 0 1 1.74-.41 2.07 2.07 0 0 1 1.48.53 2.58 2.58 0 0 1 .74 1.38 5.38 5.38 0 0 1 0 1.92 9.1 9.1 0 0 1-.62 2.16 11.65 11.65 0 0 1-1.09 1.92 11.44 11.44 0 0 1-1.68 2 1.59 1.59 0 0 0 1.55.82 2.18 2.18 0 0 0 1.5-.66 8.16 8.16 0 0 0 1.3-1.58 17.59 17.59 0 0 0 1.05-1.88q.46-1 .76-1.55a.29.29 0 0 1 .39-.16Q125.88 60.28 125.72 60.64zm-4.81-4.28a1.77 1.77 0 0 0-1.15.15 4.4 4.4 0 0 0-1.25.89 10.25 10.25 0 0 0-1.22 1.45 11.84 11.84 0 0 0-1.05 1.83 13.76 13.76 0 0 0-.77 1.93 8.05 8.05 0 0 0-.35 1.63 2.9 2.9 0 0 0 .1 1.2.89.89 0 0 0 .63.61 1.64 1.64 0 0 0 1.05-.1 4.29 4.29 0 0 0 1.19-.72 3.14 3.14 0 0 1-.4-.82 2.71 2.71 0 0 1-.13-.79 2.19 2.19 0 0 1 .28-1 .92.92 0 0 1 .87-.43.93.93 0 0 1 .71.3 1 1 0 0 1 .28.69.93.93 0 0 1 0 .18 1.55 1.55 0 0 1 0 .18 13.89 13.89 0 0 0 1-1.78 12.17 12.17 0 0 0 .76-1.94 7.34 7.34 0 0 0 .3-1.65 2.84 2.84 0 0 0-.16-1.2A1 1 0 0 0 120.91 56.36zM96.6.62a2.35 2.35 0 0 1 1.53.68 1.53 1.53 0 0 1 .33 1A1.62 1.62 0 0 0 98 5.19a1.61 1.61 0 0 0 1 .26l1.42 7-2.72.3s-11.54 3-12.11 3.58-.24.73-.24.73L100.79 14l3.12 15.43s.29.24.58-.5-1.42-12.55-1.42-12.55l-.8-2.68 7.1-1.44a1.6 1.6 0 0 0 .64.84 1.61 1.61 0 0 0 2.5-1.52 1.52 1.52 0 0 1 1.05-.09 2.34 2.34 0 0 1 1.22 1.15.31.31 0 0 0 .41.15.31.31 0 0 0 .15-.41 3.26 3.26 0 0 0-1-1.21 2.24 2.24 0 0 0-.56-.27 2.12 2.12 0 0 0-1.42.09 1.59 1.59 0 0 0-.53-.58 1.62 1.62 0 0 0-2.5 1.18l0 0-7.4.81L99.76 5.26h-.05a1.61 1.61 0 0 0 .11-2.76 1.63 1.63 0 0 0-.74-.26A2.1 2.1 0 0 0 98.61.89a2.08 2.08 0 0 0-.47-.41A3.25 3.25 0 0 0 96.62 0a.31.31 0 0 0-.32.3A.31.31 0 0 0 96.6.62zm14.64 10.59a.63.63 0 0 1-.69 1 .63.63 0 0 1 .69-1zm-12-7.89a.63.63 0 0 1-.69 1 .63.63 0 0 1 .69-1z" fill="#01282d"/></svg>