<svg xmlns="http://www.w3.org/2000/svg" viewBox="0 0 147.96 153"><title>Asset 5</title><path d="M102,38.05A46,46,0,0,0,56.1,84v5.14a71.71,71.71,0,0,1-11,.85c-1.43,0-2.82-.06-4.18-.16l2.58-4.34,3.62,1.85A1,1,0,0,0,48,85.53l-.56-.29,4.85-13.63A131.94,131.94,0,0,1,64.55,46.26l9.36-15.07a9.14,9.14,0,0,0-.79-10.75l1.19-2.34A5,5,0,0,0,73,11.94,3.62,3.62,0,0,1,76.17,10,3.58,3.58,0,0,1,79,11.36l4.65,5.83a9.91,9.91,0,0,0,7.79,3.75h.08a1,1,0,0,0,0-2h0a8.08,8.08,0,0,1-6.3-3L80.6,10.12A5.68,5.68,0,0,0,76.16,8a5.61,5.61,0,0,0-4.94,3,5,5,0,0,0-5.78,2.54l-1.31,2.56a9.15,9.15,0,0,0-8.57,5.69L48.84,38.24A132,132,0,0,1,35.45,63l-8.2,11.92-.56-.29a1,1,0,1,0-.91,1.78l3.61,1.84-3.7,8.56-.24-.08a1,1,0,0,0-1.2.51l-7,14.25a1,1,0,0,0,.45,1.33l.89.42-1.71,4-.55,0a1,1,0,0,0-1.07.92,1,1,0,0,0,.8,1L14,113.95l-1.06-.08a1,1,0,1,0-.15,2l.38,0-2.08,4.81-1.58-.12a1,1,0,1,0-.15,2l.89.07-2.08,4.81-2.09-.16a1,1,0,0,0-.15,2l1.4.11-2.15,5a1,1,0,0,0,.46,1.28L11,138.36a1,1,0,0,0,1.31-.38L17,130.11l2,.15H19a1,1,0,0,0,.08-2l-1-.08,2.82-4.75,1.43.11h.08a1,1,0,0,0,.08-2l-.45,0,2.82-4.75.9.07h.08a1,1,0,0,0,.16-2l2.83-4.76.36,0h.08a1,1,0,0,0,1-.92,1,1,0,0,0-.39-.85l.7-1.18a64.7,64.7,0,0,0,14.53,1.72,73.69,73.69,0,0,0,11-.83v35.76a1,1,0,0,0,2,0v-36.1c1.63-.29,3.26-.63,4.87-1,.81-.2,1.61-.44,2.41-.67l-.09.37a10.7,10.7,0,0,0,.32,6.33l1.86,5.09A10.12,10.12,0,0,0,72,123.38a22.93,22.93,0,0,0,4.7,8.4l14.88,16.84a13,13,0,0,0,9.73,4.38h1.18a13,13,0,0,0,9.73-4.38l14.88-16.84a22.93,22.93,0,0,0,4.66-8.27,10.71,10.71,0,0,0,4.81-5.67l1.86-5.09a10.71,10.71,0,0,0,.32-6.33l-.93-3.64c1,.09,2.08.15,3.13.15.78,0,1.55,0,2.32-.06l2.67-.14v41.12a1,1,0,0,0,2,0V84A46,46,0,0,0,102,38.05Z" fill="#ffd4cc"/><path d="M97,30.05A46,46,0,0,0,51.11,76v5.14a71.7,71.7,0,0,1-11,.85c-1.43,0-2.83-.06-4.19-.16l2.58-4.34,3.62,1.85A1,1,0,1,0,43,77.53l-.56-.29,4.85-13.63A132,132,0,0,1,59.55,38.26l9.36-15.07a9.14,9.14,0,0,0-.79-10.75l1.19-2.34A5,5,0,0,0,68,3.94,3.63,3.63,0,0,1,74,3.36l4.65,5.83a9.91,9.91,0,0,0,7.79,3.75h.08a1,1,0,0,0,0-2h0a8.06,8.06,0,0,1-6.3-3L75.6,2.12A5.69,5.69,0,0,0,71.16,0a5.61,5.61,0,0,0-4.94,3,5,5,0,0,0-5.78,2.54L59.12,8.12a9.15,9.15,0,0,0-8.57,5.69L43.84,30.24A132,132,0,0,1,30.45,55l-8.2,11.92-.56-.29a1,1,0,1,0-.91,1.78l3.61,1.84-3.7,8.56-.24-.08a1,1,0,0,0-1.2.51l-7,14.25a1,1,0,0,0,.45,1.33l.89.42-1.71,4-.55,0a1,1,0,0,0-1.07.92,1,1,0,0,0,.8,1L9,105.95l-1.06-.08a1,1,0,1,0-.15,2l.38,0-2.08,4.81-1.58-.12a1,1,0,1,0-.15,2l.89.07-2.08,4.8-2.09-.16a1,1,0,1,0-.15,2l1.4.11-2.15,5a1,1,0,0,0,.46,1.29L6,130.36A1,1,0,0,0,7.28,130L12,122.11l2,.15H14a1,1,0,0,0,.08-2l-1-.08,2.82-4.75,1.43.11h.08a1,1,0,0,0,.08-2l-.45,0,2.82-4.75.89.07h.08a1,1,0,0,0,.16-2l2.83-4.76.35,0h.08a1,1,0,0,0,1-.92,1,1,0,0,0-.39-.85l.7-1.18a64.71,64.71,0,0,0,14.53,1.72,73.64,73.64,0,0,0,11-.83v35.77a1,1,0,0,0,2,0V99.76c1.63-.29,3.26-.63,4.87-1,.81-.2,1.61-.44,2.41-.67l-.09.37a10.7,10.7,0,0,0,.32,6.33l1.86,5.09A10.12,10.12,0,0,0,67,115.38a22.93,22.93,0,0,0,4.7,8.4l14.88,16.84A13,13,0,0,0,96.34,145h1.18a13,13,0,0,0,9.73-4.38l14.88-16.84a22.93,22.93,0,0,0,4.66-8.27,10.71,10.71,0,0,0,4.81-5.67l1.86-5.09a10.7,10.7,0,0,0,.32-6.33l-.93-3.64c1,.09,2.08.15,3.13.15.78,0,1.55,0,2.32-.06l2.67-.14v41.12a1,1,0,0,0,2,0V76A46,46,0,0,0,97,30.05ZM62.21,6.48A3,3,0,1,1,67.54,9.2L66.62,11a15.52,15.52,0,0,0-5-2.51l-.43-.11ZM24.05,67.84l8-11.7A134,134,0,0,0,45.69,31L52.4,14.57a7.18,7.18,0,0,1,8.69-4.16,13.53,13.53,0,0,1,4.4,2.25,7.17,7.17,0,0,1,1.72,9.48L57.85,37.2A134,134,0,0,0,45.45,63L40.69,76.33Zm2.13,3.35,10.54,5.39-3,5a67.72,67.72,0,0,1-11.1-2.2ZM6,128.16l-3.66-1.87,2.05-4.75,5.31.41ZM10.88,120l-5.61-.43,2.08-4.81,6.36.49Zm4-6.66-6.66-.51L10.26,108l7.41.57Zm4-6.66-7.71-.59,2.08-4.81,8.46.65Zm4-6.66L14,99.37,15.45,96a68.42,68.42,0,0,0,8.12,2.68Zm41.58,9.12-1.86-5.09a8.72,8.72,0,0,1-.26-5.15l.4-1.57q1.7-.57,3.35-1.23v12.46a23,23,0,0,0,.33,3.77A8.64,8.64,0,0,1,64.34,109.17Zm61.54-.59a21,21,0,0,1-5.25,13.88L105.75,139.3A11,11,0,0,1,97.52,143H96.34a11,11,0,0,1-8.23-3.71L73.23,122.46A20.94,20.94,0,0,1,68,108.58V95.29C81.08,89.51,91.48,79.72,97,70.92c7,11.3,17.59,19.44,28.86,22.58Zm5.69-4.51-1.86,5.09a8.73,8.73,0,0,1-2.19,3.34,22.94,22.94,0,0,0,.35-3.93V94q1.42.32,2.84.52l1.11,4.38A8.72,8.72,0,0,1,131.58,104.07ZM141,92.74l-2.78.14c-.73,0-1.47.06-2.21.06-17.68,0-31.56-13.17-38.08-24.45a1,1,0,0,0-1.73,0C90.08,79,75.38,92.38,57.49,96.79a72.1,72.1,0,0,1-17.37,2.14,66.92,66.92,0,0,1-25.61-5.47L20.68,80.9l.18.05h.07a67.05,67.05,0,0,0,19.2,3A74.11,74.11,0,0,0,58,81.76a76.24,76.24,0,0,0,8.46-2.62,1,1,0,0,0-.7-1.87,74,74,0,0,1-8.24,2.55q-2.18.54-4.39.95V76A43.93,43.93,0,0,1,141,76ZM98,122.09l-.94.59-.92-.57a5.7,5.7,0,0,0-6.78.32,3.77,3.77,0,0,1-3.06.77l-1.19-.14a1,1,0,0,0-.8,1.72,19.62,19.62,0,0,0,25.56-.07,1,1,0,0,0-.87-1.65l-1.25.15a3.72,3.72,0,0,1-3-.77A5.69,5.69,0,0,0,98,122.09Zm8,3.06a18.43,18.43,0,0,1-17.91,0A5.73,5.73,0,0,0,90.59,124a3.72,3.72,0,0,1,4.44-.19l1.47.91a1,1,0,0,0,1.05,0l1.5-.93a3.71,3.71,0,0,1,4.42.21A5.77,5.77,0,0,0,106,125.15Zm-3.35,4.69a8.29,8.29,0,0,1-11.19,0,1,1,0,0,0-1.33,1.49,10.29,10.29,0,0,0,13.85,0,1,1,0,0,0-1.33-1.49ZM52,37.37a1,1,0,0,0,1.38-.31l9.68-15.37a5.07,5.07,0,0,0-.74-6.29,1,1,0,0,0-1.4,1.43,3.06,3.06,0,0,1,.45,3.8L51.71,36A1,1,0,0,0,52,37.37ZM41.56,54.08a4,4,0,0,0-5.37,1.74l-2.72,5.33A4,4,0,0,0,37,67a4,4,0,0,0,1.24-.2,4,4,0,0,0,2.33-2l2.72-5.33A4,4,0,0,0,41.56,54.08Zm0,4.46L38.8,63.88a2,2,0,0,1-3.56-1.82L38,56.73a2,2,0,0,1,3.56,1.82Z" fill="#0a282d"/></svg>