<svg xmlns="http://www.w3.org/2000/svg" viewBox="0 0 108.6 138.99"><title>Asset 9</title><path d="M98.46,137c-.78-.08-19.2-2.08-25.58-22.38-2.49-7.93,1.31-21.15,4.08-30.8C77.45,82.1,80.8,70.46,82.07,66a18.87,18.87,0,0,1,2.45,9.31,1,1,0,0,0,2,0,19.06,19.06,0,0,1,19.06-19,1,1,0,0,0,0-2,19.06,19.06,0,0,1-19.06-19,1,1,0,0,0-2,0A19,19,0,0,1,72.78,52.79C60.22,35.93,44.27,36,33.7,35c-6.24-.57-11.62-1.07-15.49-3C6.67,26.35,7,16.89,7,16.49a1,1,0,0,0-2-.11c0,.43-.4,10,10.28,16.35.42,2.24,2.31,12.55,2.31,17.94,0,7.86-3.44,14.81-5.95,19.88-1.5,3-2.59,5.23-2.59,6.85,0,4.31,6.79,6.51,10.08,6.93,0,1.52-.11,3-.19,4.42-.21,3.7-.28,5.67.37,6.64s3,1.11,5.18.78c-.86,2.14-1.64,4.74-.94,5.94s1.92,1,3.06,1c1.48-.07,2.5-.05,3.24.88a14.77,14.77,0,0,1,3,6.29,12.38,12.38,0,0,0,4,6.93,8.31,8.31,0,0,0,5.91,2.26c3.64,0,8.17-1.77,14-4.64,7.74-3.78,12.23-3.06,13.53-2.71a19,19,0,0,0,.67,3.09A33.81,33.81,0,0,0,98.27,139h.09a1,1,0,0,0,.09-2ZM54.5,22a11,11,0,0,1,11,11,1,1,0,0,0,2,0,11,11,0,0,1,11-11,1,1,0,0,0,1-1,1,1,0,0,0-.08-.39,1,1,0,0,0-.92-.61,11,11,0,0,1-11-11,1,1,0,0,0-2,0,11,11,0,0,1-11,11,1,1,0,0,0,0,2Zm53.8,70.6a1,1,0,0,0-.71-.29,11,11,0,0,1-11-11,1,1,0,0,0-2,0,11,11,0,0,1-11,11,1,1,0,0,0,0,2,11,11,0,0,1,11,11,1,1,0,0,0,2,0,11,11,0,0,1,11-11,1,1,0,0,0,.71-1.71Z" fill="#ffd4cc"/><path d="M93.46,129c-.78-.08-19.2-2.08-25.58-22.38-2.49-7.93,1.31-21.15,4.08-30.8.58-2,1.12-3.91,1.58-5.62a1,1,0,0,0-1.94-.51c-.45,1.7-1,3.58-1.56,5.58C67.58,83.77,64.66,94,65.09,102c-2.2-.41-6.93-.55-14.21,3-10.09,4.93-14.56,5.61-17.71,2.71a10.43,10.43,0,0,1-3.38-6,16.68,16.68,0,0,0-3.38-7C25,92.94,22.88,93,21.5,93.11c-.44,0-1.1.05-1.2,0-.23-.61.6-3.36,1.78-5.88a1,1,0,0,0-1.13-1.4c-2.1.47-4.42.63-5,.37-.27-.66-.12-3.26,0-5.37.09-1.68.2-3.58.2-5.45a1,1,0,0,0-1-1c-2.64,0-9.09-2.17-9.09-5,0-1.15,1.1-3.38,2.38-6C11,58.2,14.6,51,14.6,42.68c0-4.77-1.37-12.93-2.05-16.72,4.17,2,9.64,2.5,16,3.08,10.37,1,22.12,2,31.27,10.21a1,1,0,1,0,1.34-1.49C51.49,29.14,39.38,28,28.7,27c-6.24-.57-11.62-1.07-15.49-3C1.67,18.35,2,8.9,2,8.5a1,1,0,0,0-2-.11c0,.43-.4,10,10.28,16.35.42,2.24,2.31,12.55,2.31,17.94,0,7.86-3.44,14.81-5.95,19.88-1.5,3-2.59,5.23-2.59,6.85,0,4.31,6.79,6.51,10.08,6.93,0,1.52-.11,3-.19,4.42-.21,3.7-.28,5.67.36,6.64s3,1.11,5.18.78c-.86,2.14-1.64,4.74-.94,5.94s1.92,1,3.06,1c1.48-.07,2.5-.05,3.24.88a14.77,14.77,0,0,1,3,6.29,12.38,12.38,0,0,0,4,6.93,8.31,8.31,0,0,0,5.91,2.26c3.64,0,8.17-1.77,14-4.64,7.74-3.78,12.23-3.06,13.53-2.71a19,19,0,0,0,.67,3.09A33.81,33.81,0,0,0,93.27,131h.1a1,1,0,0,0,.09-2Zm-33-82.74a1,1,0,0,0,0,2,19.06,19.06,0,0,1,19.06,19,1,1,0,0,0,2,0,19.06,19.06,0,0,1,19.06-19,1,1,0,0,0,0-2,19.06,19.06,0,0,1-19.06-19,1,1,0,0,0-2,0A19.06,19.06,0,0,1,60.46,46.26ZM80.52,33.63A21.13,21.13,0,0,0,94.19,47.26,21.13,21.13,0,0,0,80.53,60.89,21.13,21.13,0,0,0,66.86,47.26,21.13,21.13,0,0,0,80.52,33.63ZM49.5,14a11,11,0,0,1,11,11,1,1,0,0,0,2,0,11,11,0,0,1,11-11,1,1,0,0,0,0-2,11,11,0,0,1-11-11,1,1,0,0,0-2,0,11,11,0,0,1-11,11,1,1,0,0,0,0,2Zm12-8a13.1,13.1,0,0,0,7,7,13.1,13.1,0,0,0-7,7,13.1,13.1,0,0,0-7-7A13.1,13.1,0,0,0,61.54,6ZM103.3,84.62a1,1,0,0,0-.71-.29,11,11,0,0,1-11-11,1,1,0,0,0-2,0,11,11,0,0,1-11,11,1,1,0,0,0,0,2,11,11,0,0,1,11,11,1,1,0,0,0,2,0,11,11,0,0,1,11-11,1,1,0,0,0,.71-1.71ZM90.56,92.34a13.1,13.1,0,0,0-7-7,13.1,13.1,0,0,0,7-7,13.1,13.1,0,0,0,7,7A13.1,13.1,0,0,0,90.56,92.34Z" fill="#0a282d"/></svg>