<svg xmlns="http://www.w3.org/2000/svg" viewBox="0 0 138 152.01"><title>Asset 12</title><path d="M45.5,30.06a1,1,0,0,0,.8-.39A50.26,50.26,0,0,1,57.55,18.91a1,1,0,1,0-1.14-1.64,52.25,52.25,0,0,0-11.7,11.18,1,1,0,0,0,.79,1.6ZM35.06,75a1,1,0,0,0,1-1V59.88A49.64,49.64,0,0,1,43.32,34a1,1,0,0,0-1.71-1,51.64,51.64,0,0,0-7.55,26.91V74A1,1,0,0,0,35.06,75ZM136.73,54.48a1,1,0,0,0,.87-1.11A52,52,0,0,0,60.76,14.56a1,1,0,0,0,1,1.74,50,50,0,0,1,73.87,37.32,1,1,0,0,0,1,.87Zm.27,4.4a1,1,0,0,0-1,1V74a1,1,0,0,0,2,0V59.88A1,1,0,0,0,137,58.88ZM86,14a46,46,0,0,0-46,45.89V94a1,1,0,0,0,2,0V78.63l2.68.14c.77,0,1.54.06,2.32.06,1,0,2.08-.05,3.13-.14l-.93,3.63a10.69,10.69,0,0,0,.32,6.33l1.86,5.09a10.71,10.71,0,0,0,4.82,5.66,22.9,22.9,0,0,0,4.66,8.26l14.9,16.83a13,13,0,0,0,9.74,4.38h1a13,13,0,0,0,9.74-4.38l14.9-16.83a22.9,22.9,0,0,0,4.66-8.26,10.71,10.71,0,0,0,4.82-5.66l1.86-5.09a10.68,10.68,0,0,0,.32-6.33l-.93-3.63c1,.09,2.08.14,3.13.14.78,0,1.55,0,2.32-.06l2.68-.14v41.1a1,1,0,0,0,2,0V59.88A46,46,0,0,0,86,14Zm-28.9,95.75a31.11,31.11,0,0,0-3.73-.23c-8.75,0-16.7,3.53-21.7,9.42-5.06-5.92-13.06-9.42-21.7-9.42a31.11,31.11,0,0,0-3.73.23,1,1,0,0,0-.86.79,19.57,19.57,0,0,0-.4,4c0,7.71,4.6,14.95,12.1,19.17-4.9,5.53-6.59,10.89-4.5,14.5A7.57,7.57,0,0,0,17,151.47a11.44,11.44,0,0,0,3.47.53,12.7,12.7,0,0,0,7.94-2.88A25,25,0,0,0,31.7,146a24.65,24.65,0,0,0,3.25,3.16A12.68,12.68,0,0,0,42.88,152a11.43,11.43,0,0,0,3.48-.54,7.51,7.51,0,0,0,4.44-3.31c2.09-3.61.4-9-4.5-14.5,7.49-4.22,12.1-11.46,12.1-19.17a19.57,19.57,0,0,0-.4-4A1,1,0,0,0,57.13,109.74Zm-40.8-6.3c1.22-1.16,6.79-2,10.66,1,2.71,2.14,3.37,5.71,3.52,7.9a14.92,14.92,0,0,0,0,2.06,1,1,0,0,0,0,.11.93.93,0,0,0,0,.16,1,1,0,0,0,.1.18l.1.13a1,1,0,0,0,.16.13l.13.08a1,1,0,0,0,.21.06l.11,0h.18l.11,0a1,1,0,0,0,.21-.06l.13-.08a1,1,0,0,0,.16-.13l.1-.13a1,1,0,0,0,.1-.18,1,1,0,0,0,0-.16.9.9,0,0,0,0-.11,14.91,14.91,0,0,0,0-2.06c.14-2.18.81-5.76,3.52-7.9,3.87-3.06,9.45-2.21,10.66-1A1,1,0,0,0,48.09,102c-2.16-2.06-8.83-2.59-13.28.93a10.6,10.6,0,0,0-3.28,4.61,10.6,10.6,0,0,0-3.28-4.61c-4.45-3.51-11.13-3-13.28-.93a1,1,0,1,0,1.38,1.44Z" fill="#ffd4cc"/><path d="M40.5,22.06a1,1,0,0,0,.8-.39A50.26,50.26,0,0,1,52.55,10.91a1,1,0,1,0-1.14-1.64,52.24,52.24,0,0,0-11.7,11.18,1,1,0,0,0,.79,1.6ZM30.06,67a1,1,0,0,0,1-1V51.88A49.64,49.64,0,0,1,38.32,26a1,1,0,0,0-1.71-1,51.64,51.64,0,0,0-7.55,26.91V66A1,1,0,0,0,30.06,67ZM131.73,46.48a1,1,0,0,0,.87-1.11A52,52,0,0,0,55.76,6.56a1,1,0,0,0,1,1.74,50,50,0,0,1,73.87,37.32,1,1,0,0,0,1,.87Zm.27,4.4a1,1,0,0,0-1,1V66a1,1,0,0,0,2,0V51.88A1,1,0,0,0,132,50.88ZM81,6a46,46,0,0,0-46,45.89V86a1,1,0,0,0,2,0V70.63l2.68.14c.77,0,1.54.06,2.32.06,1,0,2.08-.05,3.13-.14l-.93,3.63a10.68,10.68,0,0,0,.32,6.33l1.86,5.09a10.71,10.71,0,0,0,4.82,5.66,22.9,22.9,0,0,0,4.66,8.26l14.9,16.83a13,13,0,0,0,9.74,4.38h1a13,13,0,0,0,9.74-4.38l14.9-16.83a22.9,22.9,0,0,0,4.66-8.26,10.71,10.71,0,0,0,4.82-5.66l1.86-5.09a10.68,10.68,0,0,0,.32-6.33l-.93-3.63c1,.09,2.08.14,3.13.14.78,0,1.55,0,2.32-.06l2.68-.14v41.1a1,1,0,0,0,2,0V51.88A46,46,0,0,0,81,6ZM48.31,85.05,46.45,80a8.7,8.7,0,0,1-.26-5.15l1.11-4.37q1.43-.21,2.85-.53V84.47a22.91,22.91,0,0,0,.35,3.92A8.72,8.72,0,0,1,48.31,85.05Zm61.6-.59a20.91,20.91,0,0,1-5.26,13.87l-14.9,16.83a11,11,0,0,1-8.24,3.71h-1a11,11,0,0,1-8.24-3.71L57.41,98.34a20.91,20.91,0,0,1-5.26-13.87V69.42C63.43,66.28,74,58.13,81,46.84c7,11.29,17.61,19.44,28.88,22.58Zm5.7-4.51-1.86,5.09a8.73,8.73,0,0,1-2.19,3.34,22.91,22.91,0,0,0,.35-3.92V69.91q1.42.32,2.85.53l1.11,4.37A8.7,8.7,0,0,1,115.61,80ZM125,68.63l-2.78.14c-.73,0-1.47.06-2.22.06-17.69,0-31.59-13.17-38.11-24.44l0,0a1,1,0,0,0-.13-.15,1,1,0,0,0-.15-.13l0,0-.11,0a1,1,0,0,0-.2-.07h-.38l-.2.07-.11,0,0,0a1.59,1.59,0,0,0-.28.28l0,0C73.64,55.67,59.75,68.84,42.06,68.84c-.74,0-1.48,0-2.22-.06l-2.78-.14V51.88a44,44,0,0,1,87.95,0ZM82,98l-.94.58L80.09,98h0a5.71,5.71,0,0,0-6.75.34,3.77,3.77,0,0,1-3.07.77l-1.19-.14a1,1,0,0,0-.8,1.72A18.54,18.54,0,0,0,81,105.35a18.55,18.55,0,0,0,12.78-4.72,1,1,0,0,0-.82-1.7l-1.25.15a3.73,3.73,0,0,1-3-.77A5.7,5.7,0,0,0,82,98ZM90,101a18.47,18.47,0,0,1-17.93,0,5.74,5.74,0,0,0,2.53-1.17A3.73,3.73,0,0,1,79,99.67l1.47.91h0l.17.07.08,0h.51l.08,0,.17-.07h0L83,99.67h0l0,0a3.72,3.72,0,0,1,4.42.21A5.77,5.77,0,0,0,90,101Zm-3.35,4.69a8.31,8.31,0,0,1-11.2,0,1,1,0,1,0-1.33,1.49,10.31,10.31,0,0,0,13.86,0,1,1,0,1,0-1.33-1.49Zm-34.51-4a31.12,31.12,0,0,0-3.73-.23c-8.75,0-16.7,3.53-21.7,9.42C21.64,105,13.63,101.51,5,101.51a31.11,31.11,0,0,0-3.73.23,1,1,0,0,0-.86.79,19.58,19.58,0,0,0-.4,4c0,7.71,4.6,14.95,12.1,19.17-4.9,5.53-6.59,10.89-4.5,14.5A7.57,7.57,0,0,0,12,143.47a11.44,11.44,0,0,0,3.47.53,12.7,12.7,0,0,0,7.94-2.88A25,25,0,0,0,26.7,138a24.63,24.63,0,0,0,3.25,3.16A12.68,12.68,0,0,0,37.88,144a11.44,11.44,0,0,0,3.48-.54,7.51,7.51,0,0,0,4.44-3.31c2.09-3.61.4-9-4.5-14.5,7.49-4.22,12.1-11.46,12.1-19.17a19.57,19.57,0,0,0-.4-4A1,1,0,0,0,52.13,101.74Zm-12.9,22.75a1,1,0,0,0-.28,1.58c4.86,5.11,6.82,10.13,5.1,13.09a5.59,5.59,0,0,1-3.31,2.41,10.28,10.28,0,0,1-9.54-2,20.42,20.42,0,0,1-7-10.11,1,1,0,0,0-1.92.56,21.09,21.09,0,0,0,3.11,6.33,22.83,22.83,0,0,1-3.25,3.22,10.29,10.29,0,0,1-9.54,2,5.64,5.64,0,0,1-3.32-2.41c-1.71-3,.24-8,5.1-13.09a1,1,0,0,0-.28-1.58C6.66,120.72,2,113.83,2,106.49a17.73,17.73,0,0,1,.23-2.85c.92-.09,1.85-.13,2.77-.13,8.21,0,15.78,3.37,20.44,9-.43.6-.84,1.22-1.21,1.87a20.34,20.34,0,0,0-2.43,6.77,1,1,0,0,0,2,.33A18.37,18.37,0,0,1,26,115.41c4.52-7.93,14.71-12.77,25.2-11.77a17.74,17.74,0,0,1,.23,2.85C51.39,113.83,46.73,120.72,39.23,124.49Zm-27.9-29c1.22-1.16,6.79-2,10.66,1,2.71,2.14,3.37,5.71,3.52,7.9a14.92,14.92,0,0,0,0,2.06,1,1,0,0,0,0,.11.86.86,0,0,0,.15.35l.1.13a1,1,0,0,0,.16.13l.13.08a1,1,0,0,0,.21.06l.11,0h.18l.11,0a1,1,0,0,0,.21-.06l.13-.08a1,1,0,0,0,.16-.13l.1-.12a.86.86,0,0,0,.15-.35.92.92,0,0,0,0-.11,14.89,14.89,0,0,0,0-2.06c.14-2.18.81-5.76,3.52-7.9,3.87-3.06,9.45-2.21,10.66-1A1,1,0,1,0,43.09,94c-2.16-2.06-8.83-2.59-13.28.93a10.6,10.6,0,0,0-3.28,4.61,10.6,10.6,0,0,0-3.28-4.61c-4.45-3.51-11.13-3-13.28-.93a1,1,0,1,0,1.38,1.44Z" fill="#0a282d"/></svg>