<svg xmlns="http://www.w3.org/2000/svg" viewBox="0 0 141.99 146.02"><title>Asset 4</title><path d="M52,119.93H49.8l-.21-.8A22.84,22.84,0,0,0,36.48,104l-2.56-1.1a1,1,0,0,0-1.21,1.51l1.48,2.06a4.39,4.39,0,0,1-3.56,7h-5.2a21.48,21.48,0,0,0-15.13,6.19l-.36.36H6a1,1,0,0,0-1,1v1a24,24,0,1,0,48,0v-1A1,1,0,0,0,52,119.93Zm89.5-60.27-10.06-6.59a7.06,7.06,0,0,1-2-9.73,1,1,0,0,0-.29-1.39L114,32A46,46,0,0,0,73.6,8h0a46.15,46.15,0,0,0-46,46.16v49.61a1,1,0,1,0,2,0V73l2.68.14c.77,0,1.55.06,2.33.06,1,0,2.09-.05,3.13-.14l-.93,3.65a10.8,10.8,0,0,0,.32,6.36L39,88.23a10.75,10.75,0,0,0,4.82,5.7,23.07,23.07,0,0,0,4.67,8.31l14.92,16.93a13,13,0,0,0,9.75,4.41h1a13,13,0,0,0,9.75-4.41l14.92-16.93a23.07,23.07,0,0,0,4.67-8.31,10.76,10.76,0,0,0,4.82-5.7l1.86-5.12a10.8,10.8,0,0,0,.32-6.36l-.93-3.65c1,.09,2.09.14,3.13.14.78,0,1.56,0,2.32-.06l2.68-.14v30.75a1,1,0,1,0,2,0V63.68a6.78,6.78,0,0,1,4.17,1.14l10,6.59a1,1,0,0,0,1.39-.29L141.82,61A1,1,0,0,0,141.53,59.66Z" fill="#ffd4cc"/><path d="M69.55,92.55l-.95.59-.92-.57a5.7,5.7,0,0,0-6.8.32,3.78,3.78,0,0,1-3.07.77l-1.19-.14a1,1,0,0,0-.8,1.73A18.52,18.52,0,0,0,68.6,100a18.53,18.53,0,0,0,12.8-4.75,1,1,0,0,0-.82-1.71l-1.25.15a3.72,3.72,0,0,1-3-.78A5.69,5.69,0,0,0,69.55,92.55Zm8,3.08a18.39,18.39,0,0,1-17.94,0,5.74,5.74,0,0,0,2.52-1.18,3.72,3.72,0,0,1,4.45-.19l1.47.92a.9.9,0,0,0,.14.05,1,1,0,0,0,.2.07h.18a1,1,0,0,0,.21,0,1,1,0,0,0,.18-.07.93.93,0,0,0,.15-.06l1.5-.93a3.71,3.71,0,0,1,4.43.21A5.77,5.77,0,0,0,77.57,95.62Zm-3.36,4.71a8.29,8.29,0,0,1-11.22,0,1,1,0,0,0-1.33,1.5,10.29,10.29,0,0,0,13.88,0,1,1,0,0,0-1.33-1.5ZM47,111.93H44.8l-.21-.8A22.84,22.84,0,0,0,31.48,96l-2.56-1.1a1,1,0,0,0-1.21,1.51l1.48,2.06a4.39,4.39,0,0,1-3.56,7h-5.2a21.48,21.48,0,0,0-15.13,6.19l-.36.36H1a1,1,0,0,0-1,1v1a24,24,0,1,0,48,0v-1A1,1,0,0,0,47,111.93Zm-26.61-4.54h5.2a6.41,6.41,0,0,0,5.69-9.31,20.84,20.84,0,0,1,11.34,13.57l.07.28H7.9A19.46,19.46,0,0,1,20.43,107.39ZM24,136A22.07,22.07,0,0,1,2,113.94H46A22.07,22.07,0,0,1,24,136ZM6,118.91l.51,1a23.63,23.63,0,0,0,13.75,11.57,1,1,0,0,0,.61-1.91A21.64,21.64,0,0,1,8.23,118.94l-.51-1a1,1,0,1,0-1.77.94ZM136.53,51.66l-10.06-6.59a7.06,7.06,0,0,1-2-9.73,1,1,0,0,0-.29-1.39L109,24A46,46,0,0,0,68.6,0h0a46.15,46.15,0,0,0-46,46.16V95.78a1,1,0,1,0,2,0V65l2.68.14c.77,0,1.55.06,2.33.06,1,0,2.09-.05,3.13-.14l-.93,3.65a10.8,10.8,0,0,0,.32,6.36L34,80.23a10.76,10.76,0,0,0,4.82,5.7,23.07,23.07,0,0,0,4.67,8.31l14.92,16.93a13,13,0,0,0,9.75,4.41h1a13,13,0,0,0,9.75-4.41L93.76,94.24a23.06,23.06,0,0,0,4.67-8.31,10.76,10.76,0,0,0,4.82-5.7l1.86-5.12a10.8,10.8,0,0,0,.32-6.36l-.93-3.65c1,.09,2.09.14,3.13.14.78,0,1.56,0,2.32-.06l2.68-.14V95.78a1,1,0,1,0,2,0V55.68a6.78,6.78,0,0,1,4.17,1.14l10,6.59a1,1,0,0,0,1.39-.29,1,1,0,0,0-.29-1.39l-10-6.59A8.9,8.9,0,0,0,115,53.66a9.58,9.58,0,0,0-1.51.12A8.89,8.89,0,0,0,108,56.94L92.91,47l.54-.83h0L106.6,26l0,0v0l.54-.82.56.37h0l14.56,9.55a9.07,9.07,0,0,0,3.1,11.64l10.06,6.59a1,1,0,0,0,1.1-1.68ZM35.84,79.55,34,74.43a8.8,8.8,0,0,1-.26-5.18l1.12-4.4q1.43-.21,2.85-.53V79A23.16,23.16,0,0,0,38,82.91,8.79,8.79,0,0,1,35.84,79.55ZM97.52,79a21.09,21.09,0,0,1-5.27,14L77.34,109.84a11,11,0,0,1-8.25,3.73h-1a11,11,0,0,1-8.25-3.73L44.95,92.91a21.09,21.09,0,0,1-5.27-14V63.81C51,60.66,61.6,52.46,68.6,41.1c7,11.36,17.63,19.56,28.92,22.71Zm5.71-4.53-1.86,5.12a8.78,8.78,0,0,1-2.19,3.36A23.15,23.15,0,0,0,99.52,79V64.31q1.42.32,2.85.53l1.12,4.4A8.8,8.8,0,0,1,103.23,74.42ZM92.33,44.24l-10.05-6.6L83.38,36l5.86,3.85a1,1,0,0,0,.33.13h.1l.12,0L90,40h0a1,1,0,0,0,.31-.13l.06,0a1,1,0,0,0,.25-.25,1,1,0,0,0-.29-1.39l-5.86-3.85,1.1-1.68,5.86,3.85a1,1,0,0,0,.33.13h.1l.12,0,.17,0h0a1,1,0,0,0,.31-.13l.06,0a1,1,0,0,0,.25-.25,1,1,0,0,0-.29-1.39l-5.86-3.85,1.1-1.68,5.86,3.85a1,1,0,0,0,.33.13h.1l.12,0,.17,0h0a1,1,0,0,0,.31-.13l.06,0a1,1,0,0,0,.25-.25,1,1,0,0,0-.29-1.39l-5.86-3.85L90,25.89l5.86,3.85a1,1,0,0,0,.33.13h.1l.12,0,.17,0h0a1,1,0,0,0,.31-.13l.06,0a1,1,0,0,0,.25-.25,1,1,0,0,0-.29-1.39l-5.86-3.85,1.1-1.68L98,26.38a1,1,0,0,0,.33.13h.1l.12,0,.17,0h0a1,1,0,0,0,.31-.13l.06,0a1,1,0,0,0,.25-.25,1,1,0,0,0-.29-1.39l-4.22-2.77-1.64-1.08,1.1-1.68,10.05,6.6Zm13.7-21-.55.84L94.6,16.94a1,1,0,0,0-1.39.29L91,20.59,88.83,24l-2.19,3.36-2.19,3.36L82.25,34l-2.19,3.36a1,1,0,0,0,.29,1.39l10.89,7.14-.55.84A1,1,0,0,0,91,48.15l16.75,11a1,1,0,0,0,1.39-.29,6.9,6.9,0,0,1,3.52-2.77v7l-2.79.14c-.73,0-1.48.06-2.22.06C89.92,63.23,76,50,69.47,38.64l0,0a1.61,1.61,0,0,0-.28-.28l0,0-.12,0a1,1,0,0,0-.2-.07h-.38l-.19.07-.12,0,0,0a1.59,1.59,0,0,0-.28.28l0,0C61.2,50,47.29,63.23,29.57,63.23c-.74,0-1.49,0-2.22-.06L24.57,63V46.17A44.15,44.15,0,0,1,68.6,2h0a44,44,0,0,1,37.53,21.12A1,1,0,0,0,106,23.24Z" fill="#0a282d"/></svg>