<svg xmlns="http://www.w3.org/2000/svg" viewBox="0 0 21.28 21.28"><title>Asset 14</title><path d="M15.68,21.28A6.48,6.48,0,0,1,11.78,20l-1.49-1.12L2.46,11,1.29,9.5A6.53,6.53,0,0,1,1.89,1L2.46.44a1.5,1.5,0,0,1,2.12,0L8.11,4a1.5,1.5,0,0,1,0,2.12L6.7,7.51a.5.5,0,0,0,0,.71l6.36,6.36a.5.5,0,0,0,.71,0l1.41-1.41a1.5,1.5,0,0,1,2.12,0l3.54,3.54a1.5,1.5,0,0,1,0,2.12l-.56.56A6.5,6.5,0,0,1,15.68,21.28ZM3.52,1a.5.5,0,0,0-.35.15l-.56.56A5.53,5.53,0,0,0,2.09,8.9l1.12,1.49,7.73,7.72,1.44,1.07a5.53,5.53,0,0,0,7.19-.51l.56-.56a.5.5,0,0,0,0-.71L16.6,13.87a.5.5,0,0,0-.71,0l-1.41,1.41a1.5,1.5,0,0,1-2.12,0L6,8.92A1.5,1.5,0,0,1,6,6.8L7.41,5.39a.5.5,0,0,0,0-.71L3.87,1.15A.5.5,0,0,0,3.52,1Z" fill="#f25555"/></svg>