<svg xmlns="http://www.w3.org/2000/svg" viewBox="0 0 24 24"><title>Asset 17</title><path d="M18,0H6A6,6,0,0,0,0,6V18a6,6,0,0,0,6,6H18a6,6,0,0,0,6-6V6A6,6,0,0,0,18,0Zm.25,13.15q.16.2.76.77h0l0,0A9.32,9.32,0,0,1,20.84,16l.06.12a1.18,1.18,0,0,1,.07.25.72.72,0,0,1,0,.32.46.46,0,0,1-.23.26,1.09,1.09,0,0,1-.55.12l-2.4,0a1.05,1.05,0,0,1-.52,0,2.28,2.28,0,0,1-.49-.21l-.19-.11a4.41,4.41,0,0,1-.66-.6q-.37-.4-.64-.73a3.11,3.11,0,0,0-.57-.54.59.59,0,0,0-.53-.15l-.07,0a.82.82,0,0,0-.16.14,1.2,1.2,0,0,0-.2.28,1.91,1.91,0,0,0-.16.49,3.1,3.1,0,0,0-.06.73,1,1,0,0,1,0,.26.63.63,0,0,1-.07.17l0,0a.75.75,0,0,1-.5.21H11.81a4.26,4.26,0,0,1-1.37-.15,5.24,5.24,0,0,1-1.23-.5,11.29,11.29,0,0,1-1-.62,5.55,5.55,0,0,1-.66-.54L7.35,15l-.26-.28q-.16-.19-.67-.85t-1-1.42q-.49-.75-1.15-2T3.06,8A.75.75,0,0,1,3,7.72a.3.3,0,0,1,0-.15l0-.06a.65.65,0,0,1,.53-.18l2.57,0,.22.06.15.08,0,0a.62.62,0,0,1,.23.3q.19.47.43,1t.38.76l.15.27q.27.56.52,1a4.82,4.82,0,0,0,.45.64,2.24,2.24,0,0,0,.39.36.59.59,0,0,0,.32.13.7.7,0,0,0,.25,0l0,0,.11-.21a1.53,1.53,0,0,0,.13-.44q0-.27.09-.76a7.34,7.34,0,0,0,0-1.17A4.38,4.38,0,0,0,10,8.54a1.81,1.81,0,0,0-.13-.43L9.81,8A1.15,1.15,0,0,0,9,7.6q-.12,0,0-.22a1.26,1.26,0,0,1,.36-.28,6.15,6.15,0,0,1,2.24-.23A6.24,6.24,0,0,1,12.92,7a1.08,1.08,0,0,1,.31.13.51.51,0,0,1,.19.22,1.48,1.48,0,0,1,.1.3,2.17,2.17,0,0,1,0,.43q0,.27,0,.52t0,.66q0,.42,0,.77,0,.1,0,.39t0,.45q0,.16,0,.38a1,1,0,0,0,.11.37.63.63,0,0,0,.21.23l.16,0q.08,0,.24-.1a3.41,3.41,0,0,0,.36-.32,4.87,4.87,0,0,0,.49-.63q.29-.43.64-1a15.31,15.31,0,0,0,1-2.11.64.64,0,0,1,.09-.16.41.41,0,0,1,.1-.1l0,0,0,0,.12,0a.35.35,0,0,1,.19,0l2.7,0a1.47,1.47,0,0,1,.6,0,.55.55,0,0,1,.29.15l.06.09q.22.6-1.41,2.76l-.61.8a7.09,7.09,0,0,0-.84,1.23A.72.72,0,0,0,18.25,13.15Z" fill="#ff7f7f"/></svg>